<?xml version="1.0" encoding="UTF-8" ?>
<svg version="1.1" width="96" height="16" xmlns="http://www.w3.org/2000/svg" shape-rendering="crispEdges">
<rect x="67" y="0" width="1" height="1" fill="#F2F2F2" />
<rect x="68" y="0" width="1" height="1" fill="#F2F2F2" />
<rect x="69" y="0" width="1" height="1" fill="#FFFFFF" />
<rect x="70" y="0" width="1" height="1" fill="#FFFFFF" />
<rect x="71" y="0" width="1" height="1" fill="#FFFFFF" />
<rect x="72" y="0" width="1" height="1" fill="#FFFFFF" />
<rect x="73" y="0" width="1" height="1" fill="#FFFFFF" />
<rect x="74" y="0" width="1" height="1" fill="#FFFFFF" />
<rect x="75" y="0" width="1" height="1" fill="#FFFFFF" />
<rect x="76" y="0" width="1" height="1" fill="#FFFFFF" />
<rect x="83" y="0" width="1" height="1" fill="#F2F2F2" />
<rect x="84" y="0" width="1" height="1" fill="#F2F2F2" />
<rect x="85" y="0" width="1" height="1" fill="#FFFFFF" />
<rect x="86" y="0" width="1" height="1" fill="#FFFFFF" />
<rect x="87" y="0" width="1" height="1" fill="#FFFFFF" />
<rect x="88" y="0" width="1" height="1" fill="#FFFFFF" />
<rect x="89" y="0" width="1" height="1" fill="#FFFFFF" />
<rect x="90" y="0" width="1" height="1" fill="#FFFFFF" />
<rect x="91" y="0" width="1" height="1" fill="#FFFFFF" />
<rect x="92" y="0" width="1" height="1" fill="#FFFFFF" />
<rect x="66" y="1" width="1" height="1" fill="#F2F2F2" />
<rect x="67" y="1" width="1" height="1" fill="#F2F2F2" />
<rect x="68" y="1" width="1" height="1" fill="#F2F2F2" />
<rect x="69" y="1" width="1" height="1" fill="#FFFFFF" />
<rect x="70" y="1" width="1" height="1" fill="#FFFFFF" />
<rect x="71" y="1" width="1" height="1" fill="#FFFFFF" />
<rect x="72" y="1" width="1" height="1" fill="#FFFFFF" />
<rect x="73" y="1" width="1" height="1" fill="#FFFFFF" />
<rect x="74" y="1" width="1" height="1" fill="#FFFFFF" />
<rect x="75" y="1" width="1" height="1" fill="#FFFFFF" />
<rect x="76" y="1" width="1" height="1" fill="#FFFFFF" />
<rect x="77" y="1" width="1" height="1" fill="#FFFFFF" />
<rect x="82" y="1" width="1" height="1" fill="#F2F2F2" />
<rect x="83" y="1" width="1" height="1" fill="#A13030" />
<rect x="84" y="1" width="1" height="1" fill="#AC3232" />
<rect x="85" y="1" width="1" height="1" fill="#AC3232" />
<rect x="86" y="1" width="1" height="1" fill="#AC3232" />
<rect x="87" y="1" width="1" height="1" fill="#B83737" />
<rect x="88" y="1" width="1" height="1" fill="#B83737" />
<rect x="89" y="1" width="1" height="1" fill="#B83737" />
<rect x="90" y="1" width="1" height="1" fill="#B83737" />
<rect x="91" y="1" width="1" height="1" fill="#B83737" />
<rect x="92" y="1" width="1" height="1" fill="#B83737" />
<rect x="93" y="1" width="1" height="1" fill="#FFFFFF" />
<rect x="66" y="2" width="1" height="1" fill="#F2F2F2" />
<rect x="67" y="2" width="1" height="1" fill="#F2F2F2" />
<rect x="68" y="2" width="1" height="1" fill="#F2F2F2" />
<rect x="69" y="2" width="1" height="1" fill="#F2F2F2" />
<rect x="70" y="2" width="1" height="1" fill="#F2F2F2" />
<rect x="71" y="2" width="1" height="1" fill="#AC3232" />
<rect x="72" y="2" width="1" height="1" fill="#B83737" />
<rect x="73" y="2" width="1" height="1" fill="#FFFFFF" />
<rect x="74" y="2" width="1" height="1" fill="#FFFFFF" />
<rect x="75" y="2" width="1" height="1" fill="#FFFFFF" />
<rect x="76" y="2" width="1" height="1" fill="#FFFFFF" />
<rect x="77" y="2" width="1" height="1" fill="#FFFFFF" />
<rect x="82" y="2" width="1" height="1" fill="#F2F2F2" />
<rect x="83" y="2" width="1" height="1" fill="#A13030" />
<rect x="84" y="2" width="1" height="1" fill="#AC3232" />
<rect x="85" y="2" width="1" height="1" fill="#AC3232" />
<rect x="86" y="2" width="1" height="1" fill="#AC3232" />
<rect x="87" y="2" width="1" height="1" fill="#FFFFFF" />
<rect x="88" y="2" width="1" height="1" fill="#FFFFFF" />
<rect x="89" y="2" width="1" height="1" fill="#B83737" />
<rect x="90" y="2" width="1" height="1" fill="#B83737" />
<rect x="91" y="2" width="1" height="1" fill="#B83737" />
<rect x="92" y="2" width="1" height="1" fill="#B83737" />
<rect x="93" y="2" width="1" height="1" fill="#FFFFFF" />
<rect x="50" y="3" width="1" height="1" fill="#F2F2F2" />
<rect x="51" y="3" width="1" height="1" fill="#F2F2F2" />
<rect x="52" y="3" width="1" height="1" fill="#F2F2F2" />
<rect x="53" y="3" width="1" height="1" fill="#FFFFFF" />
<rect x="54" y="3" width="1" height="1" fill="#FFFFFF" />
<rect x="55" y="3" width="1" height="1" fill="#FFFFFF" />
<rect x="56" y="3" width="1" height="1" fill="#FFFFFF" />
<rect x="57" y="3" width="1" height="1" fill="#FFFFFF" />
<rect x="58" y="3" width="1" height="1" fill="#FFFFFF" />
<rect x="59" y="3" width="1" height="1" fill="#FFFFFF" />
<rect x="60" y="3" width="1" height="1" fill="#FFFFFF" />
<rect x="61" y="3" width="1" height="1" fill="#FFFFFF" />
<rect x="66" y="3" width="1" height="1" fill="#F2F2F2" />
<rect x="67" y="3" width="1" height="1" fill="#F2F2F2" />
<rect x="68" y="3" width="1" height="1" fill="#F2F2F2" />
<rect x="69" y="3" width="1" height="1" fill="#F2F2F2" />
<rect x="70" y="3" width="1" height="1" fill="#F2F2F2" />
<rect x="71" y="3" width="1" height="1" fill="#AC3232" />
<rect x="72" y="3" width="1" height="1" fill="#B83737" />
<rect x="73" y="3" width="1" height="1" fill="#FFFFFF" />
<rect x="74" y="3" width="1" height="1" fill="#FFFFFF" />
<rect x="75" y="3" width="1" height="1" fill="#FFFFFF" />
<rect x="76" y="3" width="1" height="1" fill="#FFFFFF" />
<rect x="77" y="3" width="1" height="1" fill="#FFFFFF" />
<rect x="82" y="3" width="1" height="1" fill="#F2F2F2" />
<rect x="83" y="3" width="1" height="1" fill="#A13030" />
<rect x="84" y="3" width="1" height="1" fill="#AC3232" />
<rect x="85" y="3" width="1" height="1" fill="#AC3232" />
<rect x="86" y="3" width="1" height="1" fill="#AC3232" />
<rect x="87" y="3" width="1" height="1" fill="#F2F2F2" />
<rect x="88" y="3" width="1" height="1" fill="#FFFFFF" />
<rect x="89" y="3" width="1" height="1" fill="#B83737" />
<rect x="90" y="3" width="1" height="1" fill="#B83737" />
<rect x="91" y="3" width="1" height="1" fill="#B83737" />
<rect x="92" y="3" width="1" height="1" fill="#B83737" />
<rect x="93" y="3" width="1" height="1" fill="#FFFFFF" />
<rect x="50" y="4" width="1" height="1" fill="#F2F2F2" />
<rect x="51" y="4" width="1" height="1" fill="#F2F2F2" />
<rect x="52" y="4" width="1" height="1" fill="#F2F2F2" />
<rect x="53" y="4" width="1" height="1" fill="#F2F2F2" />
<rect x="54" y="4" width="1" height="1" fill="#F2F2F2" />
<rect x="55" y="4" width="1" height="1" fill="#F2F2F2" />
<rect x="56" y="4" width="1" height="1" fill="#F2F2F2" />
<rect x="57" y="4" width="1" height="1" fill="#F2F2F2" />
<rect x="58" y="4" width="1" height="1" fill="#F2F2F2" />
<rect x="59" y="4" width="1" height="1" fill="#F2F2F2" />
<rect x="60" y="4" width="1" height="1" fill="#FFFFFF" />
<rect x="61" y="4" width="1" height="1" fill="#FFFFFF" />
<rect x="66" y="4" width="1" height="1" fill="#F2F2F2" />
<rect x="67" y="4" width="1" height="1" fill="#F2F2F2" />
<rect x="68" y="4" width="1" height="1" fill="#F2F2F2" />
<rect x="69" y="4" width="1" height="1" fill="#F2F2F2" />
<rect x="70" y="4" width="1" height="1" fill="#F2F2F2" />
<rect x="71" y="4" width="1" height="1" fill="#AC3232" />
<rect x="72" y="4" width="1" height="1" fill="#B83737" />
<rect x="73" y="4" width="1" height="1" fill="#FFFFFF" />
<rect x="74" y="4" width="1" height="1" fill="#FFFFFF" />
<rect x="75" y="4" width="1" height="1" fill="#FFFFFF" />
<rect x="76" y="4" width="1" height="1" fill="#FFFFFF" />
<rect x="77" y="4" width="1" height="1" fill="#FFFFFF" />
<rect x="82" y="4" width="1" height="1" fill="#F2F2F2" />
<rect x="83" y="4" width="1" height="1" fill="#A13030" />
<rect x="84" y="4" width="1" height="1" fill="#AC3232" />
<rect x="85" y="4" width="1" height="1" fill="#AC3232" />
<rect x="86" y="4" width="1" height="1" fill="#AC3232" />
<rect x="87" y="4" width="1" height="1" fill="#F2F2F2" />
<rect x="88" y="4" width="1" height="1" fill="#F2F2F2" />
<rect x="89" y="4" width="1" height="1" fill="#B83737" />
<rect x="90" y="4" width="1" height="1" fill="#B83737" />
<rect x="91" y="4" width="1" height="1" fill="#B83737" />
<rect x="92" y="4" width="1" height="1" fill="#B83737" />
<rect x="93" y="4" width="1" height="1" fill="#FFFFFF" />
<rect x="50" y="5" width="1" height="1" fill="#F2F2F2" />
<rect x="51" y="5" width="1" height="1" fill="#F2F2F2" />
<rect x="52" y="5" width="1" height="1" fill="#F2F2F2" />
<rect x="53" y="5" width="1" height="1" fill="#F2F2F2" />
<rect x="54" y="5" width="1" height="1" fill="#F2F2F2" />
<rect x="55" y="5" width="1" height="1" fill="#F2F2F2" />
<rect x="56" y="5" width="1" height="1" fill="#F2F2F2" />
<rect x="57" y="5" width="1" height="1" fill="#F2F2F2" />
<rect x="58" y="5" width="1" height="1" fill="#F2F2F2" />
<rect x="59" y="5" width="1" height="1" fill="#F2F2F2" />
<rect x="60" y="5" width="1" height="1" fill="#FFFFFF" />
<rect x="61" y="5" width="1" height="1" fill="#FFFFFF" />
<rect x="66" y="5" width="1" height="1" fill="#F2F2F2" />
<rect x="67" y="5" width="1" height="1" fill="#F2F2F2" />
<rect x="68" y="5" width="1" height="1" fill="#F2F2F2" />
<rect x="69" y="5" width="1" height="1" fill="#F2F2F2" />
<rect x="70" y="5" width="1" height="1" fill="#F2F2F2" />
<rect x="71" y="5" width="1" height="1" fill="#AC3232" />
<rect x="72" y="5" width="1" height="1" fill="#AC3232" />
<rect x="73" y="5" width="1" height="1" fill="#F2F2F2" />
<rect x="74" y="5" width="1" height="1" fill="#FFFFFF" />
<rect x="75" y="5" width="1" height="1" fill="#FFFFFF" />
<rect x="76" y="5" width="1" height="1" fill="#FFFFFF" />
<rect x="77" y="5" width="1" height="1" fill="#FFFFFF" />
<rect x="82" y="5" width="1" height="1" fill="#F2F2F2" />
<rect x="83" y="5" width="1" height="1" fill="#A13030" />
<rect x="84" y="5" width="1" height="1" fill="#AC3232" />
<rect x="85" y="5" width="1" height="1" fill="#AC3232" />
<rect x="86" y="5" width="1" height="1" fill="#AC3232" />
<rect x="87" y="5" width="1" height="1" fill="#F2F2F2" />
<rect x="88" y="5" width="1" height="1" fill="#F2F2F2" />
<rect x="89" y="5" width="1" height="1" fill="#B83737" />
<rect x="90" y="5" width="1" height="1" fill="#B83737" />
<rect x="91" y="5" width="1" height="1" fill="#B83737" />
<rect x="92" y="5" width="1" height="1" fill="#B83737" />
<rect x="93" y="5" width="1" height="1" fill="#FFFFFF" />
<rect x="50" y="6" width="1" height="1" fill="#F2F2F2" />
<rect x="51" y="6" width="1" height="1" fill="#F2F2F2" />
<rect x="52" y="6" width="1" height="1" fill="#F2F2F2" />
<rect x="53" y="6" width="1" height="1" fill="#F2F2F2" />
<rect x="54" y="6" width="1" height="1" fill="#F2F2F2" />
<rect x="55" y="6" width="1" height="1" fill="#F2F2F2" />
<rect x="56" y="6" width="1" height="1" fill="#F2F2F2" />
<rect x="57" y="6" width="1" height="1" fill="#F2F2F2" />
<rect x="58" y="6" width="1" height="1" fill="#F2F2F2" />
<rect x="59" y="6" width="1" height="1" fill="#F2F2F2" />
<rect x="60" y="6" width="1" height="1" fill="#F2F2F2" />
<rect x="61" y="6" width="1" height="1" fill="#F2F2F2" />
<rect x="66" y="6" width="1" height="1" fill="#F2F2F2" />
<rect x="67" y="6" width="1" height="1" fill="#F2F2F2" />
<rect x="68" y="6" width="1" height="1" fill="#F2F2F2" />
<rect x="69" y="6" width="1" height="1" fill="#F2F2F2" />
<rect x="70" y="6" width="1" height="1" fill="#F2F2F2" />
<rect x="71" y="6" width="1" height="1" fill="#AC3232" />
<rect x="72" y="6" width="1" height="1" fill="#AC3232" />
<rect x="73" y="6" width="1" height="1" fill="#F2F2F2" />
<rect x="74" y="6" width="1" height="1" fill="#F2F2F2" />
<rect x="75" y="6" width="1" height="1" fill="#F2F2F2" />
<rect x="76" y="6" width="1" height="1" fill="#F2F2F2" />
<rect x="77" y="6" width="1" height="1" fill="#F2F2F2" />
<rect x="82" y="6" width="1" height="1" fill="#F2F2F2" />
<rect x="83" y="6" width="1" height="1" fill="#A13030" />
<rect x="84" y="6" width="1" height="1" fill="#AC3232" />
<rect x="85" y="6" width="1" height="1" fill="#AC3232" />
<rect x="86" y="6" width="1" height="1" fill="#AC3232" />
<rect x="87" y="6" width="1" height="1" fill="#F2F2F2" />
<rect x="88" y="6" width="1" height="1" fill="#F2F2F2" />
<rect x="89" y="6" width="1" height="1" fill="#B83737" />
<rect x="90" y="6" width="1" height="1" fill="#B83737" />
<rect x="91" y="6" width="1" height="1" fill="#B83737" />
<rect x="92" y="6" width="1" height="1" fill="#B83737" />
<rect x="93" y="6" width="1" height="1" fill="#F2F2F2" />
<rect x="50" y="7" width="1" height="1" fill="#F2F2F2" />
<rect x="51" y="7" width="1" height="1" fill="#F2F2F2" />
<rect x="52" y="7" width="1" height="1" fill="#F2F2F2" />
<rect x="53" y="7" width="1" height="1" fill="#F2F2F2" />
<rect x="54" y="7" width="1" height="1" fill="#F2F2F2" />
<rect x="55" y="7" width="1" height="1" fill="#F2F2F2" />
<rect x="56" y="7" width="1" height="1" fill="#F2F2F2" />
<rect x="57" y="7" width="1" height="1" fill="#F2F2F2" />
<rect x="58" y="7" width="1" height="1" fill="#F2F2F2" />
<rect x="59" y="7" width="1" height="1" fill="#F2F2F2" />
<rect x="60" y="7" width="1" height="1" fill="#F2F2F2" />
<rect x="61" y="7" width="1" height="1" fill="#F2F2F2" />
<rect x="66" y="7" width="1" height="1" fill="#F2F2F2" />
<rect x="67" y="7" width="1" height="1" fill="#F2F2F2" />
<rect x="68" y="7" width="1" height="1" fill="#F2F2F2" />
<rect x="69" y="7" width="1" height="1" fill="#F2F2F2" />
<rect x="70" y="7" width="1" height="1" fill="#F2F2F2" />
<rect x="71" y="7" width="1" height="1" fill="#F2F2F2" />
<rect x="72" y="7" width="1" height="1" fill="#F2F2F2" />
<rect x="73" y="7" width="1" height="1" fill="#F2F2F2" />
<rect x="74" y="7" width="1" height="1" fill="#F2F2F2" />
<rect x="75" y="7" width="1" height="1" fill="#F2F2F2" />
<rect x="76" y="7" width="1" height="1" fill="#F2F2F2" />
<rect x="77" y="7" width="1" height="1" fill="#F2F2F2" />
<rect x="82" y="7" width="1" height="1" fill="#F2F2F2" />
<rect x="83" y="7" width="1" height="1" fill="#A13030" />
<rect x="84" y="7" width="1" height="1" fill="#AC3232" />
<rect x="85" y="7" width="1" height="1" fill="#AC3232" />
<rect x="86" y="7" width="1" height="1" fill="#AC3232" />
<rect x="87" y="7" width="1" height="1" fill="#AC3232" />
<rect x="88" y="7" width="1" height="1" fill="#AC3232" />
<rect x="89" y="7" width="1" height="1" fill="#B83737" />
<rect x="90" y="7" width="1" height="1" fill="#B83737" />
<rect x="91" y="7" width="1" height="1" fill="#B83737" />
<rect x="92" y="7" width="1" height="1" fill="#B83737" />
<rect x="93" y="7" width="1" height="1" fill="#F2F2F2" />
<rect x="50" y="8" width="1" height="1" fill="#F2F2F2" />
<rect x="51" y="8" width="1" height="1" fill="#F2F2F2" />
<rect x="52" y="8" width="1" height="1" fill="#F2F2F2" />
<rect x="53" y="8" width="1" height="1" fill="#F2F2F2" />
<rect x="54" y="8" width="1" height="1" fill="#F2F2F2" />
<rect x="55" y="8" width="1" height="1" fill="#F2F2F2" />
<rect x="56" y="8" width="1" height="1" fill="#F2F2F2" />
<rect x="57" y="8" width="1" height="1" fill="#F2F2F2" />
<rect x="58" y="8" width="1" height="1" fill="#F2F2F2" />
<rect x="59" y="8" width="1" height="1" fill="#F2F2F2" />
<rect x="60" y="8" width="1" height="1" fill="#F2F2F2" />
<rect x="61" y="8" width="1" height="1" fill="#F2F2F2" />
<rect x="66" y="8" width="1" height="1" fill="#F2F2F2" />
<rect x="67" y="8" width="1" height="1" fill="#F2F2F2" />
<rect x="68" y="8" width="1" height="1" fill="#F2F2F2" />
<rect x="69" y="8" width="1" height="1" fill="#F2F2F2" />
<rect x="70" y="8" width="1" height="1" fill="#F2F2F2" />
<rect x="71" y="8" width="1" height="1" fill="#A13030" />
<rect x="72" y="8" width="1" height="1" fill="#A13030" />
<rect x="73" y="8" width="1" height="1" fill="#F2F2F2" />
<rect x="74" y="8" width="1" height="1" fill="#F2F2F2" />
<rect x="75" y="8" width="1" height="1" fill="#F2F2F2" />
<rect x="76" y="8" width="1" height="1" fill="#F2F2F2" />
<rect x="77" y="8" width="1" height="1" fill="#F2F2F2" />
<rect x="82" y="8" width="1" height="1" fill="#F2F2F2" />
<rect x="83" y="8" width="1" height="1" fill="#A13030" />
<rect x="84" y="8" width="1" height="1" fill="#A13030" />
<rect x="85" y="8" width="1" height="1" fill="#AC3232" />
<rect x="86" y="8" width="1" height="1" fill="#AC3232" />
<rect x="87" y="8" width="1" height="1" fill="#F2F2F2" />
<rect x="88" y="8" width="1" height="1" fill="#F2F2F2" />
<rect x="89" y="8" width="1" height="1" fill="#B83737" />
<rect x="90" y="8" width="1" height="1" fill="#B83737" />
<rect x="91" y="8" width="1" height="1" fill="#B83737" />
<rect x="92" y="8" width="1" height="1" fill="#B83737" />
<rect x="93" y="8" width="1" height="1" fill="#F2F2F2" />
<rect x="34" y="9" width="1" height="1" fill="#F2F2F2" />
<rect x="35" y="9" width="1" height="1" fill="#F2F2F2" />
<rect x="36" y="9" width="1" height="1" fill="#F2F2F2" />
<rect x="37" y="9" width="1" height="1" fill="#F2F2F2" />
<rect x="38" y="9" width="1" height="1" fill="#F2F2F2" />
<rect x="39" y="9" width="1" height="1" fill="#F2F2F2" />
<rect x="40" y="9" width="1" height="1" fill="#F2F2F2" />
<rect x="41" y="9" width="1" height="1" fill="#F2F2F2" />
<rect x="42" y="9" width="1" height="1" fill="#F2F2F2" />
<rect x="43" y="9" width="1" height="1" fill="#F2F2F2" />
<rect x="44" y="9" width="1" height="1" fill="#F2F2F2" />
<rect x="45" y="9" width="1" height="1" fill="#F2F2F2" />
<rect x="50" y="9" width="1" height="1" fill="#F2F2F2" />
<rect x="51" y="9" width="1" height="1" fill="#F2F2F2" />
<rect x="52" y="9" width="1" height="1" fill="#F2F2F2" />
<rect x="53" y="9" width="1" height="1" fill="#F2F2F2" />
<rect x="54" y="9" width="1" height="1" fill="#F2F2F2" />
<rect x="55" y="9" width="1" height="1" fill="#F2F2F2" />
<rect x="56" y="9" width="1" height="1" fill="#F2F2F2" />
<rect x="57" y="9" width="1" height="1" fill="#F2F2F2" />
<rect x="58" y="9" width="1" height="1" fill="#F2F2F2" />
<rect x="59" y="9" width="1" height="1" fill="#F2F2F2" />
<rect x="60" y="9" width="1" height="1" fill="#F2F2F2" />
<rect x="61" y="9" width="1" height="1" fill="#F2F2F2" />
<rect x="66" y="9" width="1" height="1" fill="#F2F2F2" />
<rect x="67" y="9" width="1" height="1" fill="#F2F2F2" />
<rect x="68" y="9" width="1" height="1" fill="#F2F2F2" />
<rect x="69" y="9" width="1" height="1" fill="#F2F2F2" />
<rect x="70" y="9" width="1" height="1" fill="#F2F2F2" />
<rect x="71" y="9" width="1" height="1" fill="#F2F2F2" />
<rect x="72" y="9" width="1" height="1" fill="#F2F2F2" />
<rect x="73" y="9" width="1" height="1" fill="#F2F2F2" />
<rect x="74" y="9" width="1" height="1" fill="#F2F2F2" />
<rect x="75" y="9" width="1" height="1" fill="#F2F2F2" />
<rect x="76" y="9" width="1" height="1" fill="#F2F2F2" />
<rect x="77" y="9" width="1" height="1" fill="#F2F2F2" />
<rect x="82" y="9" width="1" height="1" fill="#FFFFFF" />
<rect x="83" y="9" width="1" height="1" fill="#A13030" />
<rect x="84" y="9" width="1" height="1" fill="#A13030" />
<rect x="85" y="9" width="1" height="1" fill="#A13030" />
<rect x="86" y="9" width="1" height="1" fill="#A13030" />
<rect x="87" y="9" width="1" height="1" fill="#AC3232" />
<rect x="88" y="9" width="1" height="1" fill="#AC3232" />
<rect x="89" y="9" width="1" height="1" fill="#B83737" />
<rect x="90" y="9" width="1" height="1" fill="#B83737" />
<rect x="91" y="9" width="1" height="1" fill="#B83737" />
<rect x="92" y="9" width="1" height="1" fill="#B83737" />
<rect x="93" y="9" width="1" height="1" fill="#F2F2F2" />
<rect x="35" y="10" width="1" height="1" fill="#F2F2F2" />
<rect x="36" y="10" width="1" height="1" fill="#F2F2F2" />
<rect x="37" y="10" width="1" height="1" fill="#F2F2F2" />
<rect x="38" y="10" width="1" height="1" fill="#F2F2F2" />
<rect x="39" y="10" width="1" height="1" fill="#F2F2F2" />
<rect x="40" y="10" width="1" height="1" fill="#F2F2F2" />
<rect x="41" y="10" width="1" height="1" fill="#F2F2F2" />
<rect x="42" y="10" width="1" height="1" fill="#F2F2F2" />
<rect x="43" y="10" width="1" height="1" fill="#F2F2F2" />
<rect x="44" y="10" width="1" height="1" fill="#F2F2F2" />
<rect x="51" y="10" width="1" height="1" fill="#F2F2F2" />
<rect x="52" y="10" width="1" height="1" fill="#F2F2F2" />
<rect x="53" y="10" width="1" height="1" fill="#F2F2F2" />
<rect x="54" y="10" width="1" height="1" fill="#F2F2F2" />
<rect x="55" y="10" width="1" height="1" fill="#F2F2F2" />
<rect x="56" y="10" width="1" height="1" fill="#F2F2F2" />
<rect x="57" y="10" width="1" height="1" fill="#F2F2F2" />
<rect x="58" y="10" width="1" height="1" fill="#F2F2F2" />
<rect x="59" y="10" width="1" height="1" fill="#F2F2F2" />
<rect x="60" y="10" width="1" height="1" fill="#F2F2F2" />
<rect x="67" y="10" width="1" height="1" fill="#F2F2F2" />
<rect x="68" y="10" width="1" height="1" fill="#F2F2F2" />
<rect x="69" y="10" width="1" height="1" fill="#F2F2F2" />
<rect x="70" y="10" width="1" height="1" fill="#F2F2F2" />
<rect x="71" y="10" width="1" height="1" fill="#F2F2F2" />
<rect x="72" y="10" width="1" height="1" fill="#F2F2F2" />
<rect x="73" y="10" width="1" height="1" fill="#F2F2F2" />
<rect x="74" y="10" width="1" height="1" fill="#F2F2F2" />
<rect x="75" y="10" width="1" height="1" fill="#F2F2F2" />
<rect x="76" y="10" width="1" height="1" fill="#F2F2F2" />
<rect x="83" y="10" width="1" height="1" fill="#F2F2F2" />
<rect x="84" y="10" width="1" height="1" fill="#F2F2F2" />
<rect x="85" y="10" width="1" height="1" fill="#F2F2F2" />
<rect x="86" y="10" width="1" height="1" fill="#A13030" />
<rect x="87" y="10" width="1" height="1" fill="#A13030" />
<rect x="88" y="10" width="1" height="1" fill="#A13030" />
<rect x="89" y="10" width="1" height="1" fill="#A13030" />
<rect x="90" y="10" width="1" height="1" fill="#F2F2F2" />
<rect x="91" y="10" width="1" height="1" fill="#F2F2F2" />
<rect x="92" y="10" width="1" height="1" fill="#F2F2F2" />
<rect x="22" y="11" width="1" height="1" fill="#F2F2F2" />
<rect x="23" y="11" width="1" height="1" fill="#F2F2F2" />
<rect x="24" y="11" width="1" height="1" fill="#F2F2F2" />
<rect x="25" y="11" width="1" height="1" fill="#F2F2F2" />
<rect x="38" y="11" width="1" height="1" fill="#F2F2F2" />
<rect x="39" y="11" width="1" height="1" fill="#F2F2F2" />
<rect x="40" y="11" width="1" height="1" fill="#F2F2F2" />
<rect x="41" y="11" width="1" height="1" fill="#F2F2F2" />
<rect x="54" y="11" width="1" height="1" fill="#F2F2F2" />
<rect x="55" y="11" width="1" height="1" fill="#F2F2F2" />
<rect x="56" y="11" width="1" height="1" fill="#F2F2F2" />
<rect x="57" y="11" width="1" height="1" fill="#F2F2F2" />
<rect x="70" y="11" width="1" height="1" fill="#F2F2F2" />
<rect x="71" y="11" width="1" height="1" fill="#F2F2F2" />
<rect x="72" y="11" width="1" height="1" fill="#F2F2F2" />
<rect x="73" y="11" width="1" height="1" fill="#F2F2F2" />
<rect x="86" y="11" width="1" height="1" fill="#F2F2F2" />
<rect x="87" y="11" width="1" height="1" fill="#A13030" />
<rect x="88" y="11" width="1" height="1" fill="#A13030" />
<rect x="89" y="11" width="1" height="1" fill="#F2F2F2" />
<rect x="22" y="12" width="1" height="1" fill="#F2F2F2" />
<rect x="23" y="12" width="1" height="1" fill="#F2F2F2" />
<rect x="24" y="12" width="1" height="1" fill="#F2F2F2" />
<rect x="25" y="12" width="1" height="1" fill="#F2F2F2" />
<rect x="38" y="12" width="1" height="1" fill="#F2F2F2" />
<rect x="39" y="12" width="1" height="1" fill="#F2F2F2" />
<rect x="40" y="12" width="1" height="1" fill="#F2F2F2" />
<rect x="41" y="12" width="1" height="1" fill="#F2F2F2" />
<rect x="54" y="12" width="1" height="1" fill="#F2F2F2" />
<rect x="55" y="12" width="1" height="1" fill="#F2F2F2" />
<rect x="56" y="12" width="1" height="1" fill="#F2F2F2" />
<rect x="57" y="12" width="1" height="1" fill="#F2F2F2" />
<rect x="70" y="12" width="1" height="1" fill="#F2F2F2" />
<rect x="71" y="12" width="1" height="1" fill="#F2F2F2" />
<rect x="72" y="12" width="1" height="1" fill="#F2F2F2" />
<rect x="73" y="12" width="1" height="1" fill="#F2F2F2" />
<rect x="86" y="12" width="1" height="1" fill="#F2F2F2" />
<rect x="87" y="12" width="1" height="1" fill="#A13030" />
<rect x="88" y="12" width="1" height="1" fill="#A13030" />
<rect x="89" y="12" width="1" height="1" fill="#F2F2F2" />
<rect x="23" y="13" width="1" height="1" fill="#F2F2F2" />
<rect x="24" y="13" width="1" height="1" fill="#F2F2F2" />
<rect x="39" y="13" width="1" height="1" fill="#F2F2F2" />
<rect x="40" y="13" width="1" height="1" fill="#F2F2F2" />
<rect x="55" y="13" width="1" height="1" fill="#F2F2F2" />
<rect x="56" y="13" width="1" height="1" fill="#F2F2F2" />
<rect x="71" y="13" width="1" height="1" fill="#F2F2F2" />
<rect x="72" y="13" width="1" height="1" fill="#F2F2F2" />
<rect x="87" y="13" width="1" height="1" fill="#F2F2F2" />
<rect x="88" y="13" width="1" height="1" fill="#F2F2F2" />
<rect x="23" y="14" width="1" height="1" fill="#F2F2F2" />
<rect x="24" y="14" width="1" height="1" fill="#F2F2F2" />
<rect x="39" y="14" width="1" height="1" fill="#F2F2F2" />
<rect x="40" y="14" width="1" height="1" fill="#F2F2F2" />
<rect x="55" y="14" width="1" height="1" fill="#F2F2F2" />
<rect x="56" y="14" width="1" height="1" fill="#F2F2F2" />
<rect x="71" y="14" width="1" height="1" fill="#F2F2F2" />
<rect x="72" y="14" width="1" height="1" fill="#F2F2F2" />
<rect x="87" y="14" width="1" height="1" fill="#F2F2F2" />
<rect x="88" y="14" width="1" height="1" fill="#F2F2F2" />
</svg>