<?xml version="1.0" encoding="UTF-8" ?>
<svg version="1.1" width="112" height="16" xmlns="http://www.w3.org/2000/svg" shape-rendering="crispEdges">
<rect x="18" y="0" width="1" height="1" fill="#F0F0F0" />
<rect x="19" y="0" width="1" height="1" fill="#F0F0F0" />
<rect x="20" y="0" width="1" height="1" fill="#F0F0F0" />
<rect x="21" y="0" width="1" height="1" fill="#F0F0F0" />
<rect x="22" y="0" width="1" height="1" fill="#F0F0F0" />
<rect x="23" y="0" width="1" height="1" fill="#F0F0F0" />
<rect x="24" y="0" width="1" height="1" fill="#FFFFFF" />
<rect x="25" y="0" width="1" height="1" fill="#FFFFFF" />
<rect x="26" y="0" width="1" height="1" fill="#FFFFFF" />
<rect x="27" y="0" width="1" height="1" fill="#FFFFFF" />
<rect x="28" y="0" width="1" height="1" fill="#FFFFFF" />
<rect x="29" y="0" width="1" height="1" fill="#FFFFFF" />
<rect x="17" y="1" width="1" height="1" fill="#F0F0F0" />
<rect x="18" y="1" width="1" height="1" fill="#AD3434" />
<rect x="19" y="1" width="1" height="1" fill="#AD3434" />
<rect x="20" y="1" width="1" height="1" fill="#AD3434" />
<rect x="21" y="1" width="1" height="1" fill="#AD3434" />
<rect x="22" y="1" width="1" height="1" fill="#AD3434" />
<rect x="23" y="1" width="1" height="1" fill="#AD3434" />
<rect x="24" y="1" width="1" height="1" fill="#B83636" />
<rect x="25" y="1" width="1" height="1" fill="#B83636" />
<rect x="26" y="1" width="1" height="1" fill="#B83636" />
<rect x="27" y="1" width="1" height="1" fill="#B83636" />
<rect x="28" y="1" width="1" height="1" fill="#B83636" />
<rect x="29" y="1" width="1" height="1" fill="#B83636" />
<rect x="30" y="1" width="1" height="1" fill="#FFFFFF" />
<rect x="34" y="1" width="1" height="1" fill="#F0F0F0" />
<rect x="35" y="1" width="1" height="1" fill="#F0F0F0" />
<rect x="36" y="1" width="1" height="1" fill="#F0F0F0" />
<rect x="37" y="1" width="1" height="1" fill="#F0F0F0" />
<rect x="38" y="1" width="1" height="1" fill="#F0F0F0" />
<rect x="39" y="1" width="1" height="1" fill="#F0F0F0" />
<rect x="40" y="1" width="1" height="1" fill="#FFFFFF" />
<rect x="41" y="1" width="1" height="1" fill="#FFFFFF" />
<rect x="42" y="1" width="1" height="1" fill="#FFFFFF" />
<rect x="43" y="1" width="1" height="1" fill="#FFFFFF" />
<rect x="44" y="1" width="1" height="1" fill="#FFFFFF" />
<rect x="45" y="1" width="1" height="1" fill="#FFFFFF" />
<rect x="98" y="1" width="1" height="1" fill="#F0F0F0" />
<rect x="99" y="1" width="1" height="1" fill="#F0F0F0" />
<rect x="100" y="1" width="1" height="1" fill="#F0F0F0" />
<rect x="101" y="1" width="1" height="1" fill="#F0F0F0" />
<rect x="102" y="1" width="1" height="1" fill="#F0F0F0" />
<rect x="103" y="1" width="1" height="1" fill="#F0F0F0" />
<rect x="104" y="1" width="1" height="1" fill="#FFFFFF" />
<rect x="105" y="1" width="1" height="1" fill="#FFFFFF" />
<rect x="106" y="1" width="1" height="1" fill="#FFFFFF" />
<rect x="107" y="1" width="1" height="1" fill="#FFFFFF" />
<rect x="108" y="1" width="1" height="1" fill="#FFFFFF" />
<rect x="109" y="1" width="1" height="1" fill="#FFFFFF" />
<rect x="17" y="2" width="1" height="1" fill="#F0F0F0" />
<rect x="18" y="2" width="1" height="1" fill="#AD3434" />
<rect x="19" y="2" width="1" height="1" fill="#AD3434" />
<rect x="20" y="2" width="1" height="1" fill="#AD3434" />
<rect x="21" y="2" width="1" height="1" fill="#AD3434" />
<rect x="22" y="2" width="1" height="1" fill="#AD3434" />
<rect x="23" y="2" width="1" height="1" fill="#AD3434" />
<rect x="24" y="2" width="1" height="1" fill="#B83636" />
<rect x="25" y="2" width="1" height="1" fill="#B83636" />
<rect x="26" y="2" width="1" height="1" fill="#B83636" />
<rect x="27" y="2" width="1" height="1" fill="#B83636" />
<rect x="28" y="2" width="1" height="1" fill="#B83636" />
<rect x="29" y="2" width="1" height="1" fill="#B83636" />
<rect x="30" y="2" width="1" height="1" fill="#FFFFFF" />
<rect x="33" y="2" width="1" height="1" fill="#F0F0F0" />
<rect x="34" y="2" width="1" height="1" fill="#AD3434" />
<rect x="35" y="2" width="1" height="1" fill="#AD3434" />
<rect x="36" y="2" width="1" height="1" fill="#AD3434" />
<rect x="37" y="2" width="1" height="1" fill="#AD3434" />
<rect x="38" y="2" width="1" height="1" fill="#AD3434" />
<rect x="39" y="2" width="1" height="1" fill="#AD3434" />
<rect x="40" y="2" width="1" height="1" fill="#B83636" />
<rect x="41" y="2" width="1" height="1" fill="#B83636" />
<rect x="42" y="2" width="1" height="1" fill="#B83636" />
<rect x="43" y="2" width="1" height="1" fill="#B83636" />
<rect x="44" y="2" width="1" height="1" fill="#B83636" />
<rect x="45" y="2" width="1" height="1" fill="#B83636" />
<rect x="46" y="2" width="1" height="1" fill="#FFFFFF" />
<rect x="97" y="2" width="1" height="1" fill="#F0F0F0" />
<rect x="98" y="2" width="1" height="1" fill="#F0F0F0" />
<rect x="99" y="2" width="1" height="1" fill="#F0F0F0" />
<rect x="100" y="2" width="1" height="1" fill="#F0F0F0" />
<rect x="101" y="2" width="1" height="1" fill="#F0F0F0" />
<rect x="102" y="2" width="1" height="1" fill="#F0F0F0" />
<rect x="103" y="2" width="1" height="1" fill="#F0F0F0" />
<rect x="104" y="2" width="1" height="1" fill="#FFFFFF" />
<rect x="105" y="2" width="1" height="1" fill="#FFFFFF" />
<rect x="106" y="2" width="1" height="1" fill="#FFFFFF" />
<rect x="107" y="2" width="1" height="1" fill="#FFFFFF" />
<rect x="108" y="2" width="1" height="1" fill="#FFFFFF" />
<rect x="109" y="2" width="1" height="1" fill="#FFFFFF" />
<rect x="110" y="2" width="1" height="1" fill="#FFFFFF" />
<rect x="17" y="3" width="1" height="1" fill="#F0F0F0" />
<rect x="18" y="3" width="1" height="1" fill="#AD3434" />
<rect x="19" y="3" width="1" height="1" fill="#AD3434" />
<rect x="20" y="3" width="1" height="1" fill="#AD3434" />
<rect x="21" y="3" width="1" height="1" fill="#AD3434" />
<rect x="22" y="3" width="1" height="1" fill="#AD3434" />
<rect x="23" y="3" width="1" height="1" fill="#F0F0F0" />
<rect x="24" y="3" width="1" height="1" fill="#FFFFFF" />
<rect x="25" y="3" width="1" height="1" fill="#B83636" />
<rect x="26" y="3" width="1" height="1" fill="#B83636" />
<rect x="27" y="3" width="1" height="1" fill="#B83636" />
<rect x="28" y="3" width="1" height="1" fill="#B83636" />
<rect x="29" y="3" width="1" height="1" fill="#B83636" />
<rect x="30" y="3" width="1" height="1" fill="#FFFFFF" />
<rect x="33" y="3" width="1" height="1" fill="#F0F0F0" />
<rect x="34" y="3" width="1" height="1" fill="#AD3434" />
<rect x="35" y="3" width="1" height="1" fill="#AD3434" />
<rect x="36" y="3" width="1" height="1" fill="#AD3434" />
<rect x="37" y="3" width="1" height="1" fill="#AD3434" />
<rect x="38" y="3" width="1" height="1" fill="#AD3434" />
<rect x="39" y="3" width="1" height="1" fill="#AD3434" />
<rect x="40" y="3" width="1" height="1" fill="#B83636" />
<rect x="41" y="3" width="1" height="1" fill="#B83636" />
<rect x="42" y="3" width="1" height="1" fill="#B83636" />
<rect x="43" y="3" width="1" height="1" fill="#B83636" />
<rect x="44" y="3" width="1" height="1" fill="#B83636" />
<rect x="45" y="3" width="1" height="1" fill="#B83636" />
<rect x="46" y="3" width="1" height="1" fill="#FFFFFF" />
<rect x="81" y="3" width="1" height="1" fill="#F0F0F0" />
<rect x="82" y="3" width="1" height="1" fill="#F0F0F0" />
<rect x="83" y="3" width="1" height="1" fill="#F0F0F0" />
<rect x="84" y="3" width="1" height="1" fill="#F0F0F0" />
<rect x="85" y="3" width="1" height="1" fill="#F0F0F0" />
<rect x="86" y="3" width="1" height="1" fill="#F0F0F0" />
<rect x="87" y="3" width="1" height="1" fill="#F0F0F0" />
<rect x="88" y="3" width="1" height="1" fill="#FFFFFF" />
<rect x="89" y="3" width="1" height="1" fill="#FFFFFF" />
<rect x="90" y="3" width="1" height="1" fill="#FFFFFF" />
<rect x="91" y="3" width="1" height="1" fill="#FFFFFF" />
<rect x="92" y="3" width="1" height="1" fill="#FFFFFF" />
<rect x="93" y="3" width="1" height="1" fill="#FFFFFF" />
<rect x="94" y="3" width="1" height="1" fill="#FFFFFF" />
<rect x="97" y="3" width="1" height="1" fill="#F0F0F0" />
<rect x="98" y="3" width="1" height="1" fill="#F0F0F0" />
<rect x="99" y="3" width="1" height="1" fill="#F0F0F0" />
<rect x="100" y="3" width="1" height="1" fill="#F0F0F0" />
<rect x="101" y="3" width="1" height="1" fill="#F0F0F0" />
<rect x="102" y="3" width="1" height="1" fill="#F0F0F0" />
<rect x="103" y="3" width="1" height="1" fill="#F0F0F0" />
<rect x="104" y="3" width="1" height="1" fill="#FFFFFF" />
<rect x="105" y="3" width="1" height="1" fill="#FFFFFF" />
<rect x="106" y="3" width="1" height="1" fill="#FFFFFF" />
<rect x="107" y="3" width="1" height="1" fill="#FFFFFF" />
<rect x="108" y="3" width="1" height="1" fill="#FFFFFF" />
<rect x="109" y="3" width="1" height="1" fill="#FFFFFF" />
<rect x="110" y="3" width="1" height="1" fill="#FFFFFF" />
<rect x="17" y="4" width="1" height="1" fill="#F0F0F0" />
<rect x="18" y="4" width="1" height="1" fill="#AD3434" />
<rect x="19" y="4" width="1" height="1" fill="#AD3434" />
<rect x="20" y="4" width="1" height="1" fill="#AD3434" />
<rect x="21" y="4" width="1" height="1" fill="#AD3434" />
<rect x="22" y="4" width="1" height="1" fill="#AD3434" />
<rect x="23" y="4" width="1" height="1" fill="#F0F0F0" />
<rect x="24" y="4" width="1" height="1" fill="#FFFFFF" />
<rect x="25" y="4" width="1" height="1" fill="#B83636" />
<rect x="26" y="4" width="1" height="1" fill="#B83636" />
<rect x="27" y="4" width="1" height="1" fill="#B83636" />
<rect x="28" y="4" width="1" height="1" fill="#B83636" />
<rect x="29" y="4" width="1" height="1" fill="#B83636" />
<rect x="30" y="4" width="1" height="1" fill="#FFFFFF" />
<rect x="33" y="4" width="1" height="1" fill="#F0F0F0" />
<rect x="34" y="4" width="1" height="1" fill="#AD3434" />
<rect x="35" y="4" width="1" height="1" fill="#AD3434" />
<rect x="36" y="4" width="1" height="1" fill="#AD3434" />
<rect x="37" y="4" width="1" height="1" fill="#AD3434" />
<rect x="38" y="4" width="1" height="1" fill="#AD3434" />
<rect x="39" y="4" width="1" height="1" fill="#F0F0F0" />
<rect x="40" y="4" width="1" height="1" fill="#FFFFFF" />
<rect x="41" y="4" width="1" height="1" fill="#B83636" />
<rect x="42" y="4" width="1" height="1" fill="#B83636" />
<rect x="43" y="4" width="1" height="1" fill="#B83636" />
<rect x="44" y="4" width="1" height="1" fill="#B83636" />
<rect x="45" y="4" width="1" height="1" fill="#B83636" />
<rect x="46" y="4" width="1" height="1" fill="#FFFFFF" />
<rect x="81" y="4" width="1" height="1" fill="#F0F0F0" />
<rect x="82" y="4" width="1" height="1" fill="#F0F0F0" />
<rect x="83" y="4" width="1" height="1" fill="#F0F0F0" />
<rect x="84" y="4" width="1" height="1" fill="#F0F0F0" />
<rect x="85" y="4" width="1" height="1" fill="#F0F0F0" />
<rect x="86" y="4" width="1" height="1" fill="#F0F0F0" />
<rect x="87" y="4" width="1" height="1" fill="#F0F0F0" />
<rect x="88" y="4" width="1" height="1" fill="#FFFFFF" />
<rect x="89" y="4" width="1" height="1" fill="#FFFFFF" />
<rect x="90" y="4" width="1" height="1" fill="#FFFFFF" />
<rect x="91" y="4" width="1" height="1" fill="#FFFFFF" />
<rect x="92" y="4" width="1" height="1" fill="#FFFFFF" />
<rect x="93" y="4" width="1" height="1" fill="#FFFFFF" />
<rect x="94" y="4" width="1" height="1" fill="#FFFFFF" />
<rect x="97" y="4" width="1" height="1" fill="#F0F0F0" />
<rect x="98" y="4" width="1" height="1" fill="#F0F0F0" />
<rect x="99" y="4" width="1" height="1" fill="#F0F0F0" />
<rect x="100" y="4" width="1" height="1" fill="#F0F0F0" />
<rect x="101" y="4" width="1" height="1" fill="#F0F0F0" />
<rect x="102" y="4" width="1" height="1" fill="#F0F0F0" />
<rect x="103" y="4" width="1" height="1" fill="#AD3434" />
<rect x="104" y="4" width="1" height="1" fill="#B83636" />
<rect x="105" y="4" width="1" height="1" fill="#FFFFFF" />
<rect x="106" y="4" width="1" height="1" fill="#FFFFFF" />
<rect x="107" y="4" width="1" height="1" fill="#FFFFFF" />
<rect x="108" y="4" width="1" height="1" fill="#FFFFFF" />
<rect x="109" y="4" width="1" height="1" fill="#FFFFFF" />
<rect x="110" y="4" width="1" height="1" fill="#FFFFFF" />
<rect x="17" y="5" width="1" height="1" fill="#F0F0F0" />
<rect x="18" y="5" width="1" height="1" fill="#AD3434" />
<rect x="19" y="5" width="1" height="1" fill="#AD3434" />
<rect x="20" y="5" width="1" height="1" fill="#AD3434" />
<rect x="21" y="5" width="1" height="1" fill="#AD3434" />
<rect x="22" y="5" width="1" height="1" fill="#AD3434" />
<rect x="23" y="5" width="1" height="1" fill="#F0F0F0" />
<rect x="24" y="5" width="1" height="1" fill="#FFFFFF" />
<rect x="25" y="5" width="1" height="1" fill="#B83636" />
<rect x="26" y="5" width="1" height="1" fill="#B83636" />
<rect x="27" y="5" width="1" height="1" fill="#B83636" />
<rect x="28" y="5" width="1" height="1" fill="#B83636" />
<rect x="29" y="5" width="1" height="1" fill="#B83636" />
<rect x="30" y="5" width="1" height="1" fill="#FFFFFF" />
<rect x="33" y="5" width="1" height="1" fill="#F0F0F0" />
<rect x="34" y="5" width="1" height="1" fill="#AD3434" />
<rect x="35" y="5" width="1" height="1" fill="#AD3434" />
<rect x="36" y="5" width="1" height="1" fill="#AD3434" />
<rect x="37" y="5" width="1" height="1" fill="#AD3434" />
<rect x="38" y="5" width="1" height="1" fill="#AD3434" />
<rect x="39" y="5" width="1" height="1" fill="#F0F0F0" />
<rect x="40" y="5" width="1" height="1" fill="#FFFFFF" />
<rect x="41" y="5" width="1" height="1" fill="#B83636" />
<rect x="42" y="5" width="1" height="1" fill="#B83636" />
<rect x="43" y="5" width="1" height="1" fill="#B83636" />
<rect x="44" y="5" width="1" height="1" fill="#B83636" />
<rect x="45" y="5" width="1" height="1" fill="#B83636" />
<rect x="46" y="5" width="1" height="1" fill="#FFFFFF" />
<rect x="81" y="5" width="1" height="1" fill="#F0F0F0" />
<rect x="82" y="5" width="1" height="1" fill="#F0F0F0" />
<rect x="83" y="5" width="1" height="1" fill="#F0F0F0" />
<rect x="84" y="5" width="1" height="1" fill="#F0F0F0" />
<rect x="85" y="5" width="1" height="1" fill="#F0F0F0" />
<rect x="86" y="5" width="1" height="1" fill="#F0F0F0" />
<rect x="87" y="5" width="1" height="1" fill="#F0F0F0" />
<rect x="88" y="5" width="1" height="1" fill="#FFFFFF" />
<rect x="89" y="5" width="1" height="1" fill="#FFFFFF" />
<rect x="90" y="5" width="1" height="1" fill="#FFFFFF" />
<rect x="91" y="5" width="1" height="1" fill="#FFFFFF" />
<rect x="92" y="5" width="1" height="1" fill="#FFFFFF" />
<rect x="93" y="5" width="1" height="1" fill="#FFFFFF" />
<rect x="94" y="5" width="1" height="1" fill="#FFFFFF" />
<rect x="97" y="5" width="1" height="1" fill="#F0F0F0" />
<rect x="98" y="5" width="1" height="1" fill="#F0F0F0" />
<rect x="99" y="5" width="1" height="1" fill="#F0F0F0" />
<rect x="100" y="5" width="1" height="1" fill="#F0F0F0" />
<rect x="101" y="5" width="1" height="1" fill="#F0F0F0" />
<rect x="102" y="5" width="1" height="1" fill="#F0F0F0" />
<rect x="103" y="5" width="1" height="1" fill="#AD3434" />
<rect x="104" y="5" width="1" height="1" fill="#B83636" />
<rect x="105" y="5" width="1" height="1" fill="#FFFFFF" />
<rect x="106" y="5" width="1" height="1" fill="#FFFFFF" />
<rect x="107" y="5" width="1" height="1" fill="#FFFFFF" />
<rect x="108" y="5" width="1" height="1" fill="#FFFFFF" />
<rect x="109" y="5" width="1" height="1" fill="#FFFFFF" />
<rect x="110" y="5" width="1" height="1" fill="#FFFFFF" />
<rect x="17" y="6" width="1" height="1" fill="#F0F0F0" />
<rect x="18" y="6" width="1" height="1" fill="#AD3434" />
<rect x="19" y="6" width="1" height="1" fill="#AD3434" />
<rect x="20" y="6" width="1" height="1" fill="#AD3434" />
<rect x="21" y="6" width="1" height="1" fill="#AD3434" />
<rect x="22" y="6" width="1" height="1" fill="#AD3434" />
<rect x="23" y="6" width="1" height="1" fill="#F0F0F0" />
<rect x="24" y="6" width="1" height="1" fill="#F0F0F0" />
<rect x="25" y="6" width="1" height="1" fill="#B83636" />
<rect x="26" y="6" width="1" height="1" fill="#B83636" />
<rect x="27" y="6" width="1" height="1" fill="#B83636" />
<rect x="28" y="6" width="1" height="1" fill="#B83636" />
<rect x="29" y="6" width="1" height="1" fill="#B83636" />
<rect x="30" y="6" width="1" height="1" fill="#FFFFFF" />
<rect x="33" y="6" width="1" height="1" fill="#F0F0F0" />
<rect x="34" y="6" width="1" height="1" fill="#AD3434" />
<rect x="35" y="6" width="1" height="1" fill="#AD3434" />
<rect x="36" y="6" width="1" height="1" fill="#AD3434" />
<rect x="37" y="6" width="1" height="1" fill="#AD3434" />
<rect x="38" y="6" width="1" height="1" fill="#AD3434" />
<rect x="39" y="6" width="1" height="1" fill="#F0F0F0" />
<rect x="40" y="6" width="1" height="1" fill="#FFFFFF" />
<rect x="41" y="6" width="1" height="1" fill="#B83636" />
<rect x="42" y="6" width="1" height="1" fill="#B83636" />
<rect x="43" y="6" width="1" height="1" fill="#B83636" />
<rect x="44" y="6" width="1" height="1" fill="#B83636" />
<rect x="45" y="6" width="1" height="1" fill="#B83636" />
<rect x="46" y="6" width="1" height="1" fill="#FFFFFF" />
<rect x="81" y="6" width="1" height="1" fill="#F0F0F0" />
<rect x="82" y="6" width="1" height="1" fill="#F0F0F0" />
<rect x="83" y="6" width="1" height="1" fill="#F0F0F0" />
<rect x="84" y="6" width="1" height="1" fill="#F0F0F0" />
<rect x="85" y="6" width="1" height="1" fill="#F0F0F0" />
<rect x="86" y="6" width="1" height="1" fill="#F0F0F0" />
<rect x="87" y="6" width="1" height="1" fill="#F0F0F0" />
<rect x="88" y="6" width="1" height="1" fill="#FFFFFF" />
<rect x="89" y="6" width="1" height="1" fill="#FFFFFF" />
<rect x="90" y="6" width="1" height="1" fill="#FFFFFF" />
<rect x="91" y="6" width="1" height="1" fill="#FFFFFF" />
<rect x="92" y="6" width="1" height="1" fill="#FFFFFF" />
<rect x="93" y="6" width="1" height="1" fill="#FFFFFF" />
<rect x="94" y="6" width="1" height="1" fill="#FFFFFF" />
<rect x="97" y="6" width="1" height="1" fill="#F0F0F0" />
<rect x="98" y="6" width="1" height="1" fill="#F0F0F0" />
<rect x="99" y="6" width="1" height="1" fill="#F0F0F0" />
<rect x="100" y="6" width="1" height="1" fill="#F0F0F0" />
<rect x="101" y="6" width="1" height="1" fill="#F0F0F0" />
<rect x="102" y="6" width="1" height="1" fill="#F0F0F0" />
<rect x="103" y="6" width="1" height="1" fill="#AD3434" />
<rect x="104" y="6" width="1" height="1" fill="#B83636" />
<rect x="105" y="6" width="1" height="1" fill="#FFFFFF" />
<rect x="106" y="6" width="1" height="1" fill="#FFFFFF" />
<rect x="107" y="6" width="1" height="1" fill="#FFFFFF" />
<rect x="108" y="6" width="1" height="1" fill="#FFFFFF" />
<rect x="109" y="6" width="1" height="1" fill="#FFFFFF" />
<rect x="110" y="6" width="1" height="1" fill="#FFFFFF" />
<rect x="17" y="7" width="1" height="1" fill="#F0F0F0" />
<rect x="18" y="7" width="1" height="1" fill="#AD3434" />
<rect x="19" y="7" width="1" height="1" fill="#AD3434" />
<rect x="20" y="7" width="1" height="1" fill="#AD3434" />
<rect x="21" y="7" width="1" height="1" fill="#AD3434" />
<rect x="22" y="7" width="1" height="1" fill="#AD3434" />
<rect x="23" y="7" width="1" height="1" fill="#AD3434" />
<rect x="24" y="7" width="1" height="1" fill="#B83636" />
<rect x="25" y="7" width="1" height="1" fill="#B83636" />
<rect x="26" y="7" width="1" height="1" fill="#B83636" />
<rect x="27" y="7" width="1" height="1" fill="#B83636" />
<rect x="28" y="7" width="1" height="1" fill="#B83636" />
<rect x="29" y="7" width="1" height="1" fill="#B83636" />
<rect x="30" y="7" width="1" height="1" fill="#FFFFFF" />
<rect x="33" y="7" width="1" height="1" fill="#F0F0F0" />
<rect x="34" y="7" width="1" height="1" fill="#AD3434" />
<rect x="35" y="7" width="1" height="1" fill="#AD3434" />
<rect x="36" y="7" width="1" height="1" fill="#AD3434" />
<rect x="37" y="7" width="1" height="1" fill="#AD3434" />
<rect x="38" y="7" width="1" height="1" fill="#AD3434" />
<rect x="39" y="7" width="1" height="1" fill="#F0F0F0" />
<rect x="40" y="7" width="1" height="1" fill="#F0F0F0" />
<rect x="41" y="7" width="1" height="1" fill="#B83636" />
<rect x="42" y="7" width="1" height="1" fill="#B83636" />
<rect x="43" y="7" width="1" height="1" fill="#B83636" />
<rect x="44" y="7" width="1" height="1" fill="#B83636" />
<rect x="45" y="7" width="1" height="1" fill="#B83636" />
<rect x="46" y="7" width="1" height="1" fill="#FFFFFF" />
<rect x="81" y="7" width="1" height="1" fill="#F0F0F0" />
<rect x="82" y="7" width="1" height="1" fill="#F0F0F0" />
<rect x="83" y="7" width="1" height="1" fill="#F0F0F0" />
<rect x="84" y="7" width="1" height="1" fill="#F0F0F0" />
<rect x="85" y="7" width="1" height="1" fill="#F0F0F0" />
<rect x="86" y="7" width="1" height="1" fill="#F0F0F0" />
<rect x="87" y="7" width="1" height="1" fill="#F0F0F0" />
<rect x="88" y="7" width="1" height="1" fill="#FFFFFF" />
<rect x="89" y="7" width="1" height="1" fill="#FFFFFF" />
<rect x="90" y="7" width="1" height="1" fill="#FFFFFF" />
<rect x="91" y="7" width="1" height="1" fill="#FFFFFF" />
<rect x="92" y="7" width="1" height="1" fill="#FFFFFF" />
<rect x="93" y="7" width="1" height="1" fill="#FFFFFF" />
<rect x="94" y="7" width="1" height="1" fill="#FFFFFF" />
<rect x="97" y="7" width="1" height="1" fill="#F0F0F0" />
<rect x="98" y="7" width="1" height="1" fill="#F0F0F0" />
<rect x="99" y="7" width="1" height="1" fill="#F0F0F0" />
<rect x="100" y="7" width="1" height="1" fill="#F0F0F0" />
<rect x="101" y="7" width="1" height="1" fill="#F0F0F0" />
<rect x="102" y="7" width="1" height="1" fill="#F0F0F0" />
<rect x="103" y="7" width="1" height="1" fill="#AD3434" />
<rect x="104" y="7" width="1" height="1" fill="#AD3434" />
<rect x="105" y="7" width="1" height="1" fill="#FFFFFF" />
<rect x="106" y="7" width="1" height="1" fill="#FFFFFF" />
<rect x="107" y="7" width="1" height="1" fill="#FFFFFF" />
<rect x="108" y="7" width="1" height="1" fill="#FFFFFF" />
<rect x="109" y="7" width="1" height="1" fill="#FFFFFF" />
<rect x="110" y="7" width="1" height="1" fill="#FFFFFF" />
<rect x="17" y="8" width="1" height="1" fill="#F0F0F0" />
<rect x="18" y="8" width="1" height="1" fill="#AD3434" />
<rect x="19" y="8" width="1" height="1" fill="#AD3434" />
<rect x="20" y="8" width="1" height="1" fill="#AD3434" />
<rect x="21" y="8" width="1" height="1" fill="#AD3434" />
<rect x="22" y="8" width="1" height="1" fill="#AD3434" />
<rect x="23" y="8" width="1" height="1" fill="#F0F0F0" />
<rect x="24" y="8" width="1" height="1" fill="#F0F0F0" />
<rect x="25" y="8" width="1" height="1" fill="#B83636" />
<rect x="26" y="8" width="1" height="1" fill="#B83636" />
<rect x="27" y="8" width="1" height="1" fill="#B83636" />
<rect x="28" y="8" width="1" height="1" fill="#B83636" />
<rect x="29" y="8" width="1" height="1" fill="#B83636" />
<rect x="30" y="8" width="1" height="1" fill="#FFFFFF" />
<rect x="33" y="8" width="1" height="1" fill="#F0F0F0" />
<rect x="34" y="8" width="1" height="1" fill="#AD3434" />
<rect x="35" y="8" width="1" height="1" fill="#AD3434" />
<rect x="36" y="8" width="1" height="1" fill="#AD3434" />
<rect x="37" y="8" width="1" height="1" fill="#AD3434" />
<rect x="38" y="8" width="1" height="1" fill="#AD3434" />
<rect x="39" y="8" width="1" height="1" fill="#AD3434" />
<rect x="40" y="8" width="1" height="1" fill="#B83636" />
<rect x="41" y="8" width="1" height="1" fill="#B83636" />
<rect x="42" y="8" width="1" height="1" fill="#B83636" />
<rect x="43" y="8" width="1" height="1" fill="#B83636" />
<rect x="44" y="8" width="1" height="1" fill="#B83636" />
<rect x="45" y="8" width="1" height="1" fill="#B83636" />
<rect x="46" y="8" width="1" height="1" fill="#FFFFFF" />
<rect x="54" y="8" width="1" height="1" fill="#F0F0F0" />
<rect x="55" y="8" width="1" height="1" fill="#F0F0F0" />
<rect x="56" y="8" width="1" height="1" fill="#F0F0F0" />
<rect x="57" y="8" width="1" height="1" fill="#F0F0F0" />
<rect x="65" y="8" width="1" height="1" fill="#F0F0F0" />
<rect x="66" y="8" width="1" height="1" fill="#F0F0F0" />
<rect x="67" y="8" width="1" height="1" fill="#F0F0F0" />
<rect x="68" y="8" width="1" height="1" fill="#F0F0F0" />
<rect x="69" y="8" width="1" height="1" fill="#F0F0F0" />
<rect x="70" y="8" width="1" height="1" fill="#F0F0F0" />
<rect x="71" y="8" width="1" height="1" fill="#F0F0F0" />
<rect x="72" y="8" width="1" height="1" fill="#F0F0F0" />
<rect x="73" y="8" width="1" height="1" fill="#FFFFFF" />
<rect x="74" y="8" width="1" height="1" fill="#FFFFFF" />
<rect x="75" y="8" width="1" height="1" fill="#FFFFFF" />
<rect x="76" y="8" width="1" height="1" fill="#FFFFFF" />
<rect x="77" y="8" width="1" height="1" fill="#FFFFFF" />
<rect x="78" y="8" width="1" height="1" fill="#FFFFFF" />
<rect x="81" y="8" width="1" height="1" fill="#F0F0F0" />
<rect x="82" y="8" width="1" height="1" fill="#F0F0F0" />
<rect x="83" y="8" width="1" height="1" fill="#F0F0F0" />
<rect x="84" y="8" width="1" height="1" fill="#F0F0F0" />
<rect x="85" y="8" width="1" height="1" fill="#F0F0F0" />
<rect x="86" y="8" width="1" height="1" fill="#F0F0F0" />
<rect x="87" y="8" width="1" height="1" fill="#F0F0F0" />
<rect x="88" y="8" width="1" height="1" fill="#FFFFFF" />
<rect x="89" y="8" width="1" height="1" fill="#FFFFFF" />
<rect x="90" y="8" width="1" height="1" fill="#FFFFFF" />
<rect x="91" y="8" width="1" height="1" fill="#FFFFFF" />
<rect x="92" y="8" width="1" height="1" fill="#FFFFFF" />
<rect x="93" y="8" width="1" height="1" fill="#FFFFFF" />
<rect x="94" y="8" width="1" height="1" fill="#FFFFFF" />
<rect x="97" y="8" width="1" height="1" fill="#F0F0F0" />
<rect x="98" y="8" width="1" height="1" fill="#F0F0F0" />
<rect x="99" y="8" width="1" height="1" fill="#F0F0F0" />
<rect x="100" y="8" width="1" height="1" fill="#F0F0F0" />
<rect x="101" y="8" width="1" height="1" fill="#F0F0F0" />
<rect x="102" y="8" width="1" height="1" fill="#F0F0F0" />
<rect x="103" y="8" width="1" height="1" fill="#F0F0F0" />
<rect x="104" y="8" width="1" height="1" fill="#FFFFFF" />
<rect x="105" y="8" width="1" height="1" fill="#FFFFFF" />
<rect x="106" y="8" width="1" height="1" fill="#FFFFFF" />
<rect x="107" y="8" width="1" height="1" fill="#FFFFFF" />
<rect x="108" y="8" width="1" height="1" fill="#FFFFFF" />
<rect x="109" y="8" width="1" height="1" fill="#FFFFFF" />
<rect x="110" y="8" width="1" height="1" fill="#FFFFFF" />
<rect x="17" y="9" width="1" height="1" fill="#F0F0F0" />
<rect x="18" y="9" width="1" height="1" fill="#AD3434" />
<rect x="19" y="9" width="1" height="1" fill="#AD3434" />
<rect x="20" y="9" width="1" height="1" fill="#AD3434" />
<rect x="21" y="9" width="1" height="1" fill="#AD3434" />
<rect x="22" y="9" width="1" height="1" fill="#AD3434" />
<rect x="23" y="9" width="1" height="1" fill="#AD3434" />
<rect x="24" y="9" width="1" height="1" fill="#AD3434" />
<rect x="25" y="9" width="1" height="1" fill="#B83636" />
<rect x="26" y="9" width="1" height="1" fill="#B83636" />
<rect x="27" y="9" width="1" height="1" fill="#B83636" />
<rect x="28" y="9" width="1" height="1" fill="#B83636" />
<rect x="29" y="9" width="1" height="1" fill="#B83636" />
<rect x="30" y="9" width="1" height="1" fill="#FFFFFF" />
<rect x="33" y="9" width="1" height="1" fill="#F0F0F0" />
<rect x="34" y="9" width="1" height="1" fill="#AD3434" />
<rect x="35" y="9" width="1" height="1" fill="#AD3434" />
<rect x="36" y="9" width="1" height="1" fill="#AD3434" />
<rect x="37" y="9" width="1" height="1" fill="#AD3434" />
<rect x="38" y="9" width="1" height="1" fill="#AD3434" />
<rect x="39" y="9" width="1" height="1" fill="#F0F0F0" />
<rect x="40" y="9" width="1" height="1" fill="#F0F0F0" />
<rect x="41" y="9" width="1" height="1" fill="#B83636" />
<rect x="42" y="9" width="1" height="1" fill="#B83636" />
<rect x="43" y="9" width="1" height="1" fill="#B83636" />
<rect x="44" y="9" width="1" height="1" fill="#B83636" />
<rect x="45" y="9" width="1" height="1" fill="#B83636" />
<rect x="46" y="9" width="1" height="1" fill="#FFFFFF" />
<rect x="54" y="9" width="1" height="1" fill="#F0F0F0" />
<rect x="55" y="9" width="1" height="1" fill="#F0F0F0" />
<rect x="56" y="9" width="1" height="1" fill="#F0F0F0" />
<rect x="57" y="9" width="1" height="1" fill="#F0F0F0" />
<rect x="66" y="9" width="1" height="1" fill="#F0F0F0" />
<rect x="67" y="9" width="1" height="1" fill="#F0F0F0" />
<rect x="68" y="9" width="1" height="1" fill="#F0F0F0" />
<rect x="69" y="9" width="1" height="1" fill="#F0F0F0" />
<rect x="70" y="9" width="1" height="1" fill="#F0F0F0" />
<rect x="71" y="9" width="1" height="1" fill="#F0F0F0" />
<rect x="72" y="9" width="1" height="1" fill="#F0F0F0" />
<rect x="73" y="9" width="1" height="1" fill="#F0F0F0" />
<rect x="74" y="9" width="1" height="1" fill="#FFFFFF" />
<rect x="75" y="9" width="1" height="1" fill="#FFFFFF" />
<rect x="76" y="9" width="1" height="1" fill="#FFFFFF" />
<rect x="77" y="9" width="1" height="1" fill="#FFFFFF" />
<rect x="81" y="9" width="1" height="1" fill="#F0F0F0" />
<rect x="82" y="9" width="1" height="1" fill="#F0F0F0" />
<rect x="83" y="9" width="1" height="1" fill="#F0F0F0" />
<rect x="84" y="9" width="1" height="1" fill="#F0F0F0" />
<rect x="85" y="9" width="1" height="1" fill="#F0F0F0" />
<rect x="86" y="9" width="1" height="1" fill="#F0F0F0" />
<rect x="87" y="9" width="1" height="1" fill="#F0F0F0" />
<rect x="88" y="9" width="1" height="1" fill="#FFFFFF" />
<rect x="89" y="9" width="1" height="1" fill="#FFFFFF" />
<rect x="90" y="9" width="1" height="1" fill="#FFFFFF" />
<rect x="91" y="9" width="1" height="1" fill="#FFFFFF" />
<rect x="92" y="9" width="1" height="1" fill="#FFFFFF" />
<rect x="93" y="9" width="1" height="1" fill="#FFFFFF" />
<rect x="94" y="9" width="1" height="1" fill="#FFFFFF" />
<rect x="97" y="9" width="1" height="1" fill="#F0F0F0" />
<rect x="98" y="9" width="1" height="1" fill="#F0F0F0" />
<rect x="99" y="9" width="1" height="1" fill="#F0F0F0" />
<rect x="100" y="9" width="1" height="1" fill="#F0F0F0" />
<rect x="101" y="9" width="1" height="1" fill="#F0F0F0" />
<rect x="102" y="9" width="1" height="1" fill="#F0F0F0" />
<rect x="103" y="9" width="1" height="1" fill="#AD3434" />
<rect x="104" y="9" width="1" height="1" fill="#AD3434" />
<rect x="105" y="9" width="1" height="1" fill="#FFFFFF" />
<rect x="106" y="9" width="1" height="1" fill="#FFFFFF" />
<rect x="107" y="9" width="1" height="1" fill="#FFFFFF" />
<rect x="108" y="9" width="1" height="1" fill="#FFFFFF" />
<rect x="109" y="9" width="1" height="1" fill="#FFFFFF" />
<rect x="110" y="9" width="1" height="1" fill="#FFFFFF" />
<rect x="18" y="10" width="1" height="1" fill="#F0F0F0" />
<rect x="19" y="10" width="1" height="1" fill="#F0F0F0" />
<rect x="20" y="10" width="1" height="1" fill="#F0F0F0" />
<rect x="21" y="10" width="1" height="1" fill="#F0F0F0" />
<rect x="22" y="10" width="1" height="1" fill="#AD3434" />
<rect x="23" y="10" width="1" height="1" fill="#AD3434" />
<rect x="24" y="10" width="1" height="1" fill="#AD3434" />
<rect x="25" y="10" width="1" height="1" fill="#AD3434" />
<rect x="26" y="10" width="1" height="1" fill="#F0F0F0" />
<rect x="27" y="10" width="1" height="1" fill="#F0F0F0" />
<rect x="28" y="10" width="1" height="1" fill="#F0F0F0" />
<rect x="29" y="10" width="1" height="1" fill="#F0F0F0" />
<rect x="33" y="10" width="1" height="1" fill="#F0F0F0" />
<rect x="34" y="10" width="1" height="1" fill="#AD3434" />
<rect x="35" y="10" width="1" height="1" fill="#AD3434" />
<rect x="36" y="10" width="1" height="1" fill="#AD3434" />
<rect x="37" y="10" width="1" height="1" fill="#AD3434" />
<rect x="38" y="10" width="1" height="1" fill="#AD3434" />
<rect x="39" y="10" width="1" height="1" fill="#AD3434" />
<rect x="40" y="10" width="1" height="1" fill="#AD3434" />
<rect x="41" y="10" width="1" height="1" fill="#B83636" />
<rect x="42" y="10" width="1" height="1" fill="#B83636" />
<rect x="43" y="10" width="1" height="1" fill="#B83636" />
<rect x="44" y="10" width="1" height="1" fill="#B83636" />
<rect x="45" y="10" width="1" height="1" fill="#B83636" />
<rect x="46" y="10" width="1" height="1" fill="#FFFFFF" />
<rect x="55" y="10" width="1" height="1" fill="#F0F0F0" />
<rect x="56" y="10" width="1" height="1" fill="#F0F0F0" />
<rect x="70" y="10" width="1" height="1" fill="#F0F0F0" />
<rect x="71" y="10" width="1" height="1" fill="#F0F0F0" />
<rect x="72" y="10" width="1" height="1" fill="#F0F0F0" />
<rect x="73" y="10" width="1" height="1" fill="#F0F0F0" />
<rect x="81" y="10" width="1" height="1" fill="#F0F0F0" />
<rect x="82" y="10" width="1" height="1" fill="#F0F0F0" />
<rect x="83" y="10" width="1" height="1" fill="#F0F0F0" />
<rect x="84" y="10" width="1" height="1" fill="#F0F0F0" />
<rect x="85" y="10" width="1" height="1" fill="#F0F0F0" />
<rect x="86" y="10" width="1" height="1" fill="#F0F0F0" />
<rect x="87" y="10" width="1" height="1" fill="#F0F0F0" />
<rect x="88" y="10" width="1" height="1" fill="#F0F0F0" />
<rect x="89" y="10" width="1" height="1" fill="#FFFFFF" />
<rect x="90" y="10" width="1" height="1" fill="#FFFFFF" />
<rect x="91" y="10" width="1" height="1" fill="#FFFFFF" />
<rect x="92" y="10" width="1" height="1" fill="#FFFFFF" />
<rect x="93" y="10" width="1" height="1" fill="#FFFFFF" />
<rect x="94" y="10" width="1" height="1" fill="#FFFFFF" />
<rect x="97" y="10" width="1" height="1" fill="#F0F0F0" />
<rect x="98" y="10" width="1" height="1" fill="#F0F0F0" />
<rect x="99" y="10" width="1" height="1" fill="#F0F0F0" />
<rect x="100" y="10" width="1" height="1" fill="#F0F0F0" />
<rect x="101" y="10" width="1" height="1" fill="#F0F0F0" />
<rect x="102" y="10" width="1" height="1" fill="#F0F0F0" />
<rect x="103" y="10" width="1" height="1" fill="#F0F0F0" />
<rect x="104" y="10" width="1" height="1" fill="#F0F0F0" />
<rect x="105" y="10" width="1" height="1" fill="#FFFFFF" />
<rect x="106" y="10" width="1" height="1" fill="#FFFFFF" />
<rect x="107" y="10" width="1" height="1" fill="#FFFFFF" />
<rect x="108" y="10" width="1" height="1" fill="#FFFFFF" />
<rect x="109" y="10" width="1" height="1" fill="#FFFFFF" />
<rect x="110" y="10" width="1" height="1" fill="#FFFFFF" />
<rect x="22" y="11" width="1" height="1" fill="#F0F0F0" />
<rect x="23" y="11" width="1" height="1" fill="#AD3434" />
<rect x="24" y="11" width="1" height="1" fill="#AD3434" />
<rect x="25" y="11" width="1" height="1" fill="#F0F0F0" />
<rect x="34" y="11" width="1" height="1" fill="#F0F0F0" />
<rect x="35" y="11" width="1" height="1" fill="#F0F0F0" />
<rect x="36" y="11" width="1" height="1" fill="#F0F0F0" />
<rect x="37" y="11" width="1" height="1" fill="#F0F0F0" />
<rect x="38" y="11" width="1" height="1" fill="#AD3434" />
<rect x="39" y="11" width="1" height="1" fill="#AD3434" />
<rect x="40" y="11" width="1" height="1" fill="#AD3434" />
<rect x="41" y="11" width="1" height="1" fill="#AD3434" />
<rect x="42" y="11" width="1" height="1" fill="#F0F0F0" />
<rect x="43" y="11" width="1" height="1" fill="#F0F0F0" />
<rect x="44" y="11" width="1" height="1" fill="#F0F0F0" />
<rect x="45" y="11" width="1" height="1" fill="#F0F0F0" />
<rect x="55" y="11" width="1" height="1" fill="#F0F0F0" />
<rect x="56" y="11" width="1" height="1" fill="#F0F0F0" />
<rect x="70" y="11" width="1" height="1" fill="#F0F0F0" />
<rect x="71" y="11" width="1" height="1" fill="#F0F0F0" />
<rect x="72" y="11" width="1" height="1" fill="#F0F0F0" />
<rect x="73" y="11" width="1" height="1" fill="#F0F0F0" />
<rect x="82" y="11" width="1" height="1" fill="#F0F0F0" />
<rect x="83" y="11" width="1" height="1" fill="#F0F0F0" />
<rect x="84" y="11" width="1" height="1" fill="#F0F0F0" />
<rect x="85" y="11" width="1" height="1" fill="#F0F0F0" />
<rect x="86" y="11" width="1" height="1" fill="#F0F0F0" />
<rect x="87" y="11" width="1" height="1" fill="#F0F0F0" />
<rect x="88" y="11" width="1" height="1" fill="#F0F0F0" />
<rect x="89" y="11" width="1" height="1" fill="#F0F0F0" />
<rect x="90" y="11" width="1" height="1" fill="#FFFFFF" />
<rect x="91" y="11" width="1" height="1" fill="#FFFFFF" />
<rect x="92" y="11" width="1" height="1" fill="#FFFFFF" />
<rect x="93" y="11" width="1" height="1" fill="#FFFFFF" />
<rect x="98" y="11" width="1" height="1" fill="#F0F0F0" />
<rect x="99" y="11" width="1" height="1" fill="#F0F0F0" />
<rect x="100" y="11" width="1" height="1" fill="#F0F0F0" />
<rect x="101" y="11" width="1" height="1" fill="#F0F0F0" />
<rect x="102" y="11" width="1" height="1" fill="#F0F0F0" />
<rect x="103" y="11" width="1" height="1" fill="#F0F0F0" />
<rect x="104" y="11" width="1" height="1" fill="#F0F0F0" />
<rect x="105" y="11" width="1" height="1" fill="#F0F0F0" />
<rect x="106" y="11" width="1" height="1" fill="#FFFFFF" />
<rect x="107" y="11" width="1" height="1" fill="#FFFFFF" />
<rect x="108" y="11" width="1" height="1" fill="#FFFFFF" />
<rect x="109" y="11" width="1" height="1" fill="#FFFFFF" />
<rect x="22" y="12" width="1" height="1" fill="#F0F0F0" />
<rect x="23" y="12" width="1" height="1" fill="#AD3434" />
<rect x="24" y="12" width="1" height="1" fill="#AD3434" />
<rect x="25" y="12" width="1" height="1" fill="#F0F0F0" />
<rect x="38" y="12" width="1" height="1" fill="#F0F0F0" />
<rect x="39" y="12" width="1" height="1" fill="#AD3434" />
<rect x="40" y="12" width="1" height="1" fill="#AD3434" />
<rect x="41" y="12" width="1" height="1" fill="#F0F0F0" />
<rect x="71" y="12" width="1" height="1" fill="#F0F0F0" />
<rect x="72" y="12" width="1" height="1" fill="#F0F0F0" />
<rect x="86" y="12" width="1" height="1" fill="#F0F0F0" />
<rect x="87" y="12" width="1" height="1" fill="#F0F0F0" />
<rect x="88" y="12" width="1" height="1" fill="#F0F0F0" />
<rect x="89" y="12" width="1" height="1" fill="#F0F0F0" />
<rect x="102" y="12" width="1" height="1" fill="#F0F0F0" />
<rect x="103" y="12" width="1" height="1" fill="#F0F0F0" />
<rect x="104" y="12" width="1" height="1" fill="#F0F0F0" />
<rect x="105" y="12" width="1" height="1" fill="#F0F0F0" />
<rect x="23" y="13" width="1" height="1" fill="#F0F0F0" />
<rect x="24" y="13" width="1" height="1" fill="#F0F0F0" />
<rect x="38" y="13" width="1" height="1" fill="#F0F0F0" />
<rect x="39" y="13" width="1" height="1" fill="#AD3434" />
<rect x="40" y="13" width="1" height="1" fill="#AD3434" />
<rect x="41" y="13" width="1" height="1" fill="#F0F0F0" />
<rect x="71" y="13" width="1" height="1" fill="#F0F0F0" />
<rect x="72" y="13" width="1" height="1" fill="#F0F0F0" />
<rect x="86" y="13" width="1" height="1" fill="#F0F0F0" />
<rect x="87" y="13" width="1" height="1" fill="#F0F0F0" />
<rect x="88" y="13" width="1" height="1" fill="#F0F0F0" />
<rect x="89" y="13" width="1" height="1" fill="#F0F0F0" />
<rect x="102" y="13" width="1" height="1" fill="#F0F0F0" />
<rect x="103" y="13" width="1" height="1" fill="#F0F0F0" />
<rect x="104" y="13" width="1" height="1" fill="#F0F0F0" />
<rect x="105" y="13" width="1" height="1" fill="#F0F0F0" />
<rect x="23" y="14" width="1" height="1" fill="#F0F0F0" />
<rect x="24" y="14" width="1" height="1" fill="#F0F0F0" />
<rect x="39" y="14" width="1" height="1" fill="#F0F0F0" />
<rect x="40" y="14" width="1" height="1" fill="#F0F0F0" />
<rect x="87" y="14" width="1" height="1" fill="#F0F0F0" />
<rect x="88" y="14" width="1" height="1" fill="#F0F0F0" />
<rect x="103" y="14" width="1" height="1" fill="#F0F0F0" />
<rect x="104" y="14" width="1" height="1" fill="#F0F0F0" />
<rect x="39" y="15" width="1" height="1" fill="#F0F0F0" />
<rect x="40" y="15" width="1" height="1" fill="#F0F0F0" />
<rect x="87" y="15" width="1" height="1" fill="#F0F0F0" />
<rect x="88" y="15" width="1" height="1" fill="#F0F0F0" />
<rect x="103" y="15" width="1" height="1" fill="#F0F0F0" />
<rect x="104" y="15" width="1" height="1" fill="#F0F0F0" />
</svg>