<?xml version="1.0" encoding="UTF-8" ?>
<svg version="1.1" width="64" height="64" xmlns="http://www.w3.org/2000/svg" shape-rendering="crispEdges">
<rect x="23" y="2" width="1" height="1" fill="#3768A3" />
<rect x="24" y="2" width="1" height="1" fill="#3768A3" />
<rect x="55" y="2" width="1" height="1" fill="#3768A3" />
<rect x="56" y="2" width="1" height="1" fill="#3768A3" />
<rect x="7" y="3" width="1" height="1" fill="#3768A3" />
<rect x="8" y="3" width="1" height="1" fill="#3768A3" />
<rect x="23" y="3" width="1" height="1" fill="#EEC39A" />
<rect x="24" y="3" width="1" height="1" fill="#EEC39A" />
<rect x="39" y="3" width="1" height="1" fill="#3768A3" />
<rect x="40" y="3" width="1" height="1" fill="#3768A3" />
<rect x="55" y="3" width="1" height="1" fill="#EEC39A" />
<rect x="56" y="3" width="1" height="1" fill="#EEC39A" />
<rect x="7" y="4" width="1" height="1" fill="#EEC39A" />
<rect x="8" y="4" width="1" height="1" fill="#EEC39A" />
<rect x="21" y="4" width="1" height="1" fill="#3768A3" />
<rect x="22" y="4" width="1" height="1" fill="#3768A3" />
<rect x="23" y="4" width="1" height="1" fill="#3F75BA" />
<rect x="24" y="4" width="1" height="1" fill="#3F75BA" />
<rect x="25" y="4" width="1" height="1" fill="#3F75BA" />
<rect x="26" y="4" width="1" height="1" fill="#3F75BA" />
<rect x="39" y="4" width="1" height="1" fill="#EEC39A" />
<rect x="40" y="4" width="1" height="1" fill="#EEC39A" />
<rect x="53" y="4" width="1" height="1" fill="#3768A3" />
<rect x="54" y="4" width="1" height="1" fill="#3768A3" />
<rect x="55" y="4" width="1" height="1" fill="#3F75BA" />
<rect x="56" y="4" width="1" height="1" fill="#3F75BA" />
<rect x="57" y="4" width="1" height="1" fill="#3F75BA" />
<rect x="58" y="4" width="1" height="1" fill="#3F75BA" />
<rect x="5" y="5" width="1" height="1" fill="#3768A3" />
<rect x="6" y="5" width="1" height="1" fill="#3768A3" />
<rect x="7" y="5" width="1" height="1" fill="#3F75BA" />
<rect x="8" y="5" width="1" height="1" fill="#3F75BA" />
<rect x="9" y="5" width="1" height="1" fill="#3F75BA" />
<rect x="10" y="5" width="1" height="1" fill="#3F75BA" />
<rect x="21" y="5" width="1" height="1" fill="#3768A3" />
<rect x="22" y="5" width="1" height="1" fill="#3768A3" />
<rect x="23" y="5" width="1" height="1" fill="#3F75BA" />
<rect x="24" y="5" width="1" height="1" fill="#3F75BA" />
<rect x="25" y="5" width="1" height="1" fill="#5FCDE4" />
<rect x="26" y="5" width="1" height="1" fill="#3F75BA" />
<rect x="37" y="5" width="1" height="1" fill="#3768A3" />
<rect x="38" y="5" width="1" height="1" fill="#3768A3" />
<rect x="39" y="5" width="1" height="1" fill="#3F75BA" />
<rect x="40" y="5" width="1" height="1" fill="#3F75BA" />
<rect x="41" y="5" width="1" height="1" fill="#3F75BA" />
<rect x="42" y="5" width="1" height="1" fill="#3F75BA" />
<rect x="53" y="5" width="1" height="1" fill="#3768A3" />
<rect x="54" y="5" width="1" height="1" fill="#3768A3" />
<rect x="55" y="5" width="1" height="1" fill="#3F75BA" />
<rect x="56" y="5" width="1" height="1" fill="#3F75BA" />
<rect x="57" y="5" width="1" height="1" fill="#5FCDE4" />
<rect x="58" y="5" width="1" height="1" fill="#3F75BA" />
<rect x="5" y="6" width="1" height="1" fill="#3768A3" />
<rect x="6" y="6" width="1" height="1" fill="#3768A3" />
<rect x="7" y="6" width="1" height="1" fill="#3F75BA" />
<rect x="8" y="6" width="1" height="1" fill="#3F75BA" />
<rect x="9" y="6" width="1" height="1" fill="#5FCDE4" />
<rect x="10" y="6" width="1" height="1" fill="#3F75BA" />
<rect x="21" y="6" width="1" height="1" fill="#E0B892" />
<rect x="22" y="6" width="1" height="1" fill="#3768A3" />
<rect x="23" y="6" width="1" height="1" fill="#3768A3" />
<rect x="24" y="6" width="1" height="1" fill="#3F75BA" />
<rect x="25" y="6" width="1" height="1" fill="#3F75BA" />
<rect x="26" y="6" width="1" height="1" fill="#EEC39A" />
<rect x="37" y="6" width="1" height="1" fill="#3768A3" />
<rect x="38" y="6" width="1" height="1" fill="#3768A3" />
<rect x="39" y="6" width="1" height="1" fill="#3F75BA" />
<rect x="40" y="6" width="1" height="1" fill="#3F75BA" />
<rect x="41" y="6" width="1" height="1" fill="#5FCDE4" />
<rect x="42" y="6" width="1" height="1" fill="#3F75BA" />
<rect x="53" y="6" width="1" height="1" fill="#E0B892" />
<rect x="54" y="6" width="1" height="1" fill="#3768A3" />
<rect x="55" y="6" width="1" height="1" fill="#3768A3" />
<rect x="56" y="6" width="1" height="1" fill="#3F75BA" />
<rect x="57" y="6" width="1" height="1" fill="#3F75BA" />
<rect x="58" y="6" width="1" height="1" fill="#EEC39A" />
<rect x="5" y="7" width="1" height="1" fill="#E0B892" />
<rect x="6" y="7" width="1" height="1" fill="#3768A3" />
<rect x="7" y="7" width="1" height="1" fill="#3768A3" />
<rect x="8" y="7" width="1" height="1" fill="#3F75BA" />
<rect x="9" y="7" width="1" height="1" fill="#3F75BA" />
<rect x="10" y="7" width="1" height="1" fill="#EEC39A" />
<rect x="22" y="7" width="1" height="1" fill="#232366" />
<rect x="23" y="7" width="1" height="1" fill="#232366" />
<rect x="24" y="7" width="1" height="1" fill="#25256E" />
<rect x="25" y="7" width="1" height="1" fill="#25256E" />
<rect x="37" y="7" width="1" height="1" fill="#E0B892" />
<rect x="38" y="7" width="1" height="1" fill="#3768A3" />
<rect x="39" y="7" width="1" height="1" fill="#3768A3" />
<rect x="40" y="7" width="1" height="1" fill="#3F75BA" />
<rect x="41" y="7" width="1" height="1" fill="#3F75BA" />
<rect x="42" y="7" width="1" height="1" fill="#EEC39A" />
<rect x="54" y="7" width="1" height="1" fill="#232366" />
<rect x="55" y="7" width="1" height="1" fill="#232366" />
<rect x="56" y="7" width="1" height="1" fill="#25256E" />
<rect x="57" y="7" width="1" height="1" fill="#25256E" />
<rect x="6" y="8" width="1" height="1" fill="#232366" />
<rect x="7" y="8" width="1" height="1" fill="#232366" />
<rect x="8" y="8" width="1" height="1" fill="#25256E" />
<rect x="9" y="8" width="1" height="1" fill="#25256E" />
<rect x="22" y="8" width="1" height="1" fill="#232366" />
<rect x="25" y="8" width="1" height="1" fill="#25256E" />
<rect x="38" y="8" width="1" height="1" fill="#232366" />
<rect x="39" y="8" width="1" height="1" fill="#232366" />
<rect x="40" y="8" width="1" height="1" fill="#25256E" />
<rect x="41" y="8" width="1" height="1" fill="#25256E" />
<rect x="54" y="8" width="1" height="1" fill="#232366" />
<rect x="57" y="8" width="1" height="1" fill="#25256E" />
<rect x="6" y="9" width="1" height="1" fill="#232366" />
<rect x="9" y="9" width="1" height="1" fill="#25256E" />
<rect x="22" y="9" width="1" height="1" fill="#232366" />
<rect x="25" y="9" width="1" height="1" fill="#25256E" />
<rect x="38" y="9" width="1" height="1" fill="#232366" />
<rect x="41" y="9" width="1" height="1" fill="#25256E" />
<rect x="54" y="9" width="1" height="1" fill="#232366" />
<rect x="57" y="9" width="1" height="1" fill="#25256E" />
<rect x="6" y="10" width="1" height="1" fill="#1D1D54" />
<rect x="9" y="10" width="1" height="1" fill="#25256E" />
<rect x="22" y="10" width="1" height="1" fill="#1D1D54" />
<rect x="25" y="10" width="1" height="1" fill="#1D1D54" />
<rect x="38" y="10" width="1" height="1" fill="#232366" />
<rect x="41" y="10" width="1" height="1" fill="#1D1D54" />
<rect x="54" y="10" width="1" height="1" fill="#1D1D54" />
<rect x="57" y="10" width="1" height="1" fill="#1D1D54" />
<rect x="9" y="11" width="1" height="1" fill="#1D1D54" />
<rect x="38" y="11" width="1" height="1" fill="#1D1D54" />
<rect x="7" y="19" width="1" height="1" fill="#3768A3" />
<rect x="8" y="19" width="1" height="1" fill="#3768A3" />
<rect x="23" y="19" width="1" height="1" fill="#3768A3" />
<rect x="24" y="19" width="1" height="1" fill="#3768A3" />
<rect x="39" y="19" width="1" height="1" fill="#3768A3" />
<rect x="40" y="19" width="1" height="1" fill="#3768A3" />
<rect x="55" y="19" width="1" height="1" fill="#3768A3" />
<rect x="56" y="19" width="1" height="1" fill="#3768A3" />
<rect x="7" y="20" width="1" height="1" fill="#EEC39A" />
<rect x="8" y="20" width="1" height="1" fill="#EEC39A" />
<rect x="23" y="20" width="1" height="1" fill="#EEC39A" />
<rect x="24" y="20" width="1" height="1" fill="#EEC39A" />
<rect x="39" y="20" width="1" height="1" fill="#EEC39A" />
<rect x="40" y="20" width="1" height="1" fill="#EEC39A" />
<rect x="55" y="20" width="1" height="1" fill="#EEC39A" />
<rect x="56" y="20" width="1" height="1" fill="#EEC39A" />
<rect x="5" y="21" width="1" height="1" fill="#3768A3" />
<rect x="6" y="21" width="1" height="1" fill="#3768A3" />
<rect x="7" y="21" width="1" height="1" fill="#3F75BA" />
<rect x="8" y="21" width="1" height="1" fill="#3F75BA" />
<rect x="9" y="21" width="1" height="1" fill="#3F75BA" />
<rect x="10" y="21" width="1" height="1" fill="#3F75BA" />
<rect x="21" y="21" width="1" height="1" fill="#3768A3" />
<rect x="22" y="21" width="1" height="1" fill="#3768A3" />
<rect x="23" y="21" width="1" height="1" fill="#3F75BA" />
<rect x="24" y="21" width="1" height="1" fill="#3F75BA" />
<rect x="25" y="21" width="1" height="1" fill="#3F75BA" />
<rect x="26" y="21" width="1" height="1" fill="#3F75BA" />
<rect x="37" y="21" width="1" height="1" fill="#3768A3" />
<rect x="38" y="21" width="1" height="1" fill="#3768A3" />
<rect x="39" y="21" width="1" height="1" fill="#3768A3" />
<rect x="40" y="21" width="1" height="1" fill="#3F75BA" />
<rect x="41" y="21" width="1" height="1" fill="#3F75BA" />
<rect x="42" y="21" width="1" height="1" fill="#3F75BA" />
<rect x="53" y="21" width="1" height="1" fill="#3768A3" />
<rect x="54" y="21" width="1" height="1" fill="#3768A3" />
<rect x="55" y="21" width="1" height="1" fill="#3768A3" />
<rect x="56" y="21" width="1" height="1" fill="#3F75BA" />
<rect x="57" y="21" width="1" height="1" fill="#3F75BA" />
<rect x="58" y="21" width="1" height="1" fill="#3F75BA" />
<rect x="5" y="22" width="1" height="1" fill="#3768A3" />
<rect x="6" y="22" width="1" height="1" fill="#3768A3" />
<rect x="7" y="22" width="1" height="1" fill="#3F75BA" />
<rect x="8" y="22" width="1" height="1" fill="#3F75BA" />
<rect x="9" y="22" width="1" height="1" fill="#5FCDE4" />
<rect x="10" y="22" width="1" height="1" fill="#3F75BA" />
<rect x="21" y="22" width="1" height="1" fill="#3768A3" />
<rect x="22" y="22" width="1" height="1" fill="#3768A3" />
<rect x="23" y="22" width="1" height="1" fill="#3F75BA" />
<rect x="24" y="22" width="1" height="1" fill="#3F75BA" />
<rect x="25" y="22" width="1" height="1" fill="#5FCDE4" />
<rect x="26" y="22" width="1" height="1" fill="#3F75BA" />
<rect x="37" y="22" width="1" height="1" fill="#3768A3" />
<rect x="38" y="22" width="1" height="1" fill="#3768A3" />
<rect x="39" y="22" width="1" height="1" fill="#3768A3" />
<rect x="40" y="22" width="1" height="1" fill="#3F75BA" />
<rect x="41" y="22" width="1" height="1" fill="#3F75BA" />
<rect x="42" y="22" width="1" height="1" fill="#3F75BA" />
<rect x="53" y="22" width="1" height="1" fill="#3768A3" />
<rect x="54" y="22" width="1" height="1" fill="#3768A3" />
<rect x="55" y="22" width="1" height="1" fill="#3768A3" />
<rect x="56" y="22" width="1" height="1" fill="#3F75BA" />
<rect x="57" y="22" width="1" height="1" fill="#3F75BA" />
<rect x="58" y="22" width="1" height="1" fill="#3F75BA" />
<rect x="5" y="23" width="1" height="1" fill="#E0B892" />
<rect x="6" y="23" width="1" height="1" fill="#3768A3" />
<rect x="7" y="23" width="1" height="1" fill="#3768A3" />
<rect x="8" y="23" width="1" height="1" fill="#3F75BA" />
<rect x="9" y="23" width="1" height="1" fill="#3F75BA" />
<rect x="10" y="23" width="1" height="1" fill="#EEC39A" />
<rect x="21" y="23" width="1" height="1" fill="#E0B892" />
<rect x="22" y="23" width="1" height="1" fill="#3768A3" />
<rect x="23" y="23" width="1" height="1" fill="#3768A3" />
<rect x="24" y="23" width="1" height="1" fill="#3F75BA" />
<rect x="25" y="23" width="1" height="1" fill="#3F75BA" />
<rect x="26" y="23" width="1" height="1" fill="#EEC39A" />
<rect x="37" y="23" width="1" height="1" fill="#E0B892" />
<rect x="38" y="23" width="1" height="1" fill="#3768A3" />
<rect x="39" y="23" width="1" height="1" fill="#3768A3" />
<rect x="40" y="23" width="1" height="1" fill="#3768A3" />
<rect x="41" y="23" width="1" height="1" fill="#3F75BA" />
<rect x="42" y="23" width="1" height="1" fill="#EEC39A" />
<rect x="53" y="23" width="1" height="1" fill="#E0B892" />
<rect x="54" y="23" width="1" height="1" fill="#3768A3" />
<rect x="55" y="23" width="1" height="1" fill="#3768A3" />
<rect x="56" y="23" width="1" height="1" fill="#3768A3" />
<rect x="57" y="23" width="1" height="1" fill="#3F75BA" />
<rect x="58" y="23" width="1" height="1" fill="#EEC39A" />
<rect x="6" y="24" width="1" height="1" fill="#232366" />
<rect x="7" y="24" width="1" height="1" fill="#232366" />
<rect x="8" y="24" width="1" height="1" fill="#25256E" />
<rect x="9" y="24" width="1" height="1" fill="#25256E" />
<rect x="22" y="24" width="1" height="1" fill="#232366" />
<rect x="23" y="24" width="1" height="1" fill="#232366" />
<rect x="24" y="24" width="1" height="1" fill="#25256E" />
<rect x="25" y="24" width="1" height="1" fill="#25256E" />
<rect x="38" y="24" width="1" height="1" fill="#232366" />
<rect x="39" y="24" width="1" height="1" fill="#232366" />
<rect x="40" y="24" width="1" height="1" fill="#25256E" />
<rect x="41" y="24" width="1" height="1" fill="#25256E" />
<rect x="54" y="24" width="1" height="1" fill="#232366" />
<rect x="55" y="24" width="1" height="1" fill="#232366" />
<rect x="56" y="24" width="1" height="1" fill="#25256E" />
<rect x="57" y="24" width="1" height="1" fill="#25256E" />
<rect x="6" y="25" width="1" height="1" fill="#232366" />
<rect x="9" y="25" width="1" height="1" fill="#25256E" />
<rect x="22" y="25" width="1" height="1" fill="#232366" />
<rect x="25" y="25" width="1" height="1" fill="#25256E" />
<rect x="38" y="25" width="1" height="1" fill="#232366" />
<rect x="41" y="25" width="1" height="1" fill="#25256E" />
<rect x="54" y="25" width="1" height="1" fill="#232366" />
<rect x="57" y="25" width="1" height="1" fill="#25256E" />
<rect x="6" y="26" width="1" height="1" fill="#1D1D54" />
<rect x="9" y="26" width="1" height="1" fill="#25256E" />
<rect x="22" y="26" width="1" height="1" fill="#232366" />
<rect x="25" y="26" width="1" height="1" fill="#1D1D54" />
<rect x="38" y="26" width="1" height="1" fill="#1D1D54" />
<rect x="41" y="26" width="1" height="1" fill="#25256E" />
<rect x="54" y="26" width="1" height="1" fill="#232366" />
<rect x="57" y="26" width="1" height="1" fill="#1D1D54" />
<rect x="9" y="27" width="1" height="1" fill="#1D1D54" />
<rect x="22" y="27" width="1" height="1" fill="#1D1D54" />
<rect x="41" y="27" width="1" height="1" fill="#1D1D54" />
<rect x="54" y="27" width="1" height="1" fill="#1D1D54" />
<rect x="8" y="35" width="1" height="1" fill="#3768A3" />
<rect x="24" y="35" width="1" height="1" fill="#3768A3" />
<rect x="40" y="35" width="1" height="1" fill="#3768A3" />
<rect x="56" y="35" width="1" height="1" fill="#3768A3" />
<rect x="8" y="36" width="1" height="1" fill="#EEC39A" />
<rect x="24" y="36" width="1" height="1" fill="#EEC39A" />
<rect x="40" y="36" width="1" height="1" fill="#EEC39A" />
<rect x="56" y="36" width="1" height="1" fill="#EEC39A" />
<rect x="7" y="37" width="1" height="1" fill="#3768A3" />
<rect x="8" y="37" width="1" height="1" fill="#3F75BA" />
<rect x="23" y="37" width="1" height="1" fill="#3768A3" />
<rect x="24" y="37" width="1" height="1" fill="#3F75BA" />
<rect x="39" y="37" width="1" height="1" fill="#3768A3" />
<rect x="40" y="37" width="1" height="1" fill="#3F75BA" />
<rect x="55" y="37" width="1" height="1" fill="#3768A3" />
<rect x="56" y="37" width="1" height="1" fill="#3F75BA" />
<rect x="7" y="38" width="1" height="1" fill="#3768A3" />
<rect x="8" y="38" width="1" height="1" fill="#3F75BA" />
<rect x="23" y="38" width="1" height="1" fill="#3768A3" />
<rect x="24" y="38" width="1" height="1" fill="#3F75BA" />
<rect x="39" y="38" width="1" height="1" fill="#3768A3" />
<rect x="40" y="38" width="1" height="1" fill="#3F75BA" />
<rect x="55" y="38" width="1" height="1" fill="#3768A3" />
<rect x="56" y="38" width="1" height="1" fill="#3F75BA" />
<rect x="7" y="39" width="1" height="1" fill="#EEC39A" />
<rect x="8" y="39" width="1" height="1" fill="#EEC39A" />
<rect x="23" y="39" width="1" height="1" fill="#EEC39A" />
<rect x="24" y="39" width="1" height="1" fill="#EEC39A" />
<rect x="39" y="39" width="1" height="1" fill="#EEC39A" />
<rect x="40" y="39" width="1" height="1" fill="#EEC39A" />
<rect x="55" y="39" width="1" height="1" fill="#EEC39A" />
<rect x="56" y="39" width="1" height="1" fill="#EEC39A" />
<rect x="8" y="40" width="1" height="1" fill="#25256E" />
<rect x="24" y="40" width="1" height="1" fill="#25256E" />
<rect x="40" y="40" width="1" height="1" fill="#25256E" />
<rect x="56" y="40" width="1" height="1" fill="#25256E" />
<rect x="8" y="41" width="1" height="1" fill="#25256E" />
<rect x="24" y="41" width="1" height="1" fill="#25256E" />
<rect x="40" y="41" width="1" height="1" fill="#25256E" />
<rect x="41" y="41" width="1" height="1" fill="#1D1D54" />
<rect x="56" y="41" width="1" height="1" fill="#25256E" />
<rect x="8" y="42" width="1" height="1" fill="#25256E" />
<rect x="24" y="42" width="1" height="1" fill="#25256E" />
<rect x="25" y="42" width="1" height="1" fill="#1D1D54" />
<rect x="40" y="42" width="1" height="1" fill="#25256E" />
<rect x="56" y="42" width="1" height="1" fill="#25256E" />
<rect x="57" y="42" width="1" height="1" fill="#1D1D54" />
<rect x="8" y="43" width="1" height="1" fill="#1D1D54" />
<rect x="24" y="43" width="1" height="1" fill="#1D1D54" />
<rect x="40" y="43" width="1" height="1" fill="#1D1D54" />
<rect x="7" y="51" width="1" height="1" fill="#3768A3" />
<rect x="23" y="51" width="1" height="1" fill="#3768A3" />
<rect x="39" y="51" width="1" height="1" fill="#3768A3" />
<rect x="55" y="51" width="1" height="1" fill="#3768A3" />
<rect x="7" y="52" width="1" height="1" fill="#EEC39A" />
<rect x="23" y="52" width="1" height="1" fill="#EEC39A" />
<rect x="39" y="52" width="1" height="1" fill="#EEC39A" />
<rect x="55" y="52" width="1" height="1" fill="#EEC39A" />
<rect x="7" y="53" width="1" height="1" fill="#3F75BA" />
<rect x="8" y="53" width="1" height="1" fill="#3768A3" />
<rect x="23" y="53" width="1" height="1" fill="#3F75BA" />
<rect x="24" y="53" width="1" height="1" fill="#3768A3" />
<rect x="39" y="53" width="1" height="1" fill="#3F75BA" />
<rect x="40" y="53" width="1" height="1" fill="#3768A3" />
<rect x="55" y="53" width="1" height="1" fill="#3F75BA" />
<rect x="56" y="53" width="1" height="1" fill="#3768A3" />
<rect x="7" y="54" width="1" height="1" fill="#3F75BA" />
<rect x="8" y="54" width="1" height="1" fill="#3768A3" />
<rect x="23" y="54" width="1" height="1" fill="#3F75BA" />
<rect x="24" y="54" width="1" height="1" fill="#3768A3" />
<rect x="39" y="54" width="1" height="1" fill="#3F75BA" />
<rect x="40" y="54" width="1" height="1" fill="#3768A3" />
<rect x="55" y="54" width="1" height="1" fill="#3F75BA" />
<rect x="56" y="54" width="1" height="1" fill="#3768A3" />
<rect x="7" y="55" width="1" height="1" fill="#EEC39A" />
<rect x="8" y="55" width="1" height="1" fill="#EEC39A" />
<rect x="23" y="55" width="1" height="1" fill="#EEC39A" />
<rect x="24" y="55" width="1" height="1" fill="#EEC39A" />
<rect x="39" y="55" width="1" height="1" fill="#EEC39A" />
<rect x="40" y="55" width="1" height="1" fill="#EEC39A" />
<rect x="55" y="55" width="1" height="1" fill="#EEC39A" />
<rect x="56" y="55" width="1" height="1" fill="#EEC39A" />
<rect x="7" y="56" width="1" height="1" fill="#25256E" />
<rect x="23" y="56" width="1" height="1" fill="#25256E" />
<rect x="39" y="56" width="1" height="1" fill="#25256E" />
<rect x="55" y="56" width="1" height="1" fill="#25256E" />
<rect x="7" y="57" width="1" height="1" fill="#25256E" />
<rect x="23" y="57" width="1" height="1" fill="#25256E" />
<rect x="38" y="57" width="1" height="1" fill="#1D1D54" />
<rect x="39" y="57" width="1" height="1" fill="#25256E" />
<rect x="55" y="57" width="1" height="1" fill="#25256E" />
<rect x="7" y="58" width="1" height="1" fill="#25256E" />
<rect x="22" y="58" width="1" height="1" fill="#1D1D54" />
<rect x="23" y="58" width="1" height="1" fill="#25256E" />
<rect x="39" y="58" width="1" height="1" fill="#25256E" />
<rect x="54" y="58" width="1" height="1" fill="#1D1D54" />
<rect x="55" y="58" width="1" height="1" fill="#25256E" />
<rect x="7" y="59" width="1" height="1" fill="#1D1D54" />
<rect x="23" y="59" width="1" height="1" fill="#1D1D54" />
<rect x="39" y="59" width="1" height="1" fill="#1D1D54" />
</svg>