<?xml version="1.0" encoding="UTF-8" ?>
<svg version="1.1" width="96" height="16" xmlns="http://www.w3.org/2000/svg" shape-rendering="crispEdges">
<rect x="70" y="0" width="1" height="1" fill="#FFFFFF" />
<rect x="73" y="0" width="1" height="1" fill="#FFFFFF" />
<rect x="53" y="1" width="1" height="1" fill="#FFFFFF" />
<rect x="58" y="1" width="1" height="1" fill="#FFFFFF" />
<rect x="37" y="3" width="1" height="1" fill="#FFFFFF" />
<rect x="42" y="3" width="1" height="1" fill="#FFFFFF" />
<rect x="53" y="3" width="1" height="1" fill="#2E2E8C" />
<rect x="54" y="3" width="1" height="1" fill="#0F0F2B" />
<rect x="55" y="3" width="1" height="1" fill="#0F0F2B" />
<rect x="56" y="3" width="1" height="1" fill="#0F0F2B" />
<rect x="57" y="3" width="1" height="1" fill="#0F0F2B" />
<rect x="58" y="3" width="1" height="1" fill="#323299" />
<rect x="5" y="4" width="1" height="1" fill="#2E2E8C" />
<rect x="6" y="4" width="1" height="1" fill="#0F0F2B" />
<rect x="7" y="4" width="1" height="1" fill="#0F0F2B" />
<rect x="8" y="4" width="1" height="1" fill="#0F0F2B" />
<rect x="9" y="4" width="1" height="1" fill="#0F0F2B" />
<rect x="10" y="4" width="1" height="1" fill="#323299" />
<rect x="37" y="4" width="1" height="1" fill="#2E2E8C" />
<rect x="38" y="4" width="1" height="1" fill="#0F0F2B" />
<rect x="39" y="4" width="1" height="1" fill="#0F0F2B" />
<rect x="40" y="4" width="1" height="1" fill="#0F0F2B" />
<rect x="41" y="4" width="1" height="1" fill="#0F0F2B" />
<rect x="42" y="4" width="1" height="1" fill="#323299" />
<rect x="53" y="4" width="1" height="1" fill="#151540" />
<rect x="54" y="4" width="1" height="1" fill="#0F0F2B" />
<rect x="55" y="4" width="1" height="1" fill="#0F0F2B" />
<rect x="56" y="4" width="1" height="1" fill="#0F0F2B" />
<rect x="57" y="4" width="1" height="1" fill="#0F0F2B" />
<rect x="58" y="4" width="1" height="1" fill="#151540" />
<rect x="69" y="4" width="1" height="1" fill="#2E2E8C" />
<rect x="70" y="4" width="1" height="1" fill="#0F0F2B" />
<rect x="71" y="4" width="1" height="1" fill="#0F0F2B" />
<rect x="72" y="4" width="1" height="1" fill="#0F0F2B" />
<rect x="73" y="4" width="1" height="1" fill="#0F0F2B" />
<rect x="74" y="4" width="1" height="1" fill="#323299" />
<rect x="85" y="4" width="1" height="1" fill="#2E2E8C" />
<rect x="86" y="4" width="1" height="1" fill="#0F0F2B" />
<rect x="87" y="4" width="1" height="1" fill="#0F0F2B" />
<rect x="88" y="4" width="1" height="1" fill="#0F0F2B" />
<rect x="89" y="4" width="1" height="1" fill="#0F0F2B" />
<rect x="90" y="4" width="1" height="1" fill="#323299" />
<rect x="5" y="5" width="1" height="1" fill="#151540" />
<rect x="6" y="5" width="1" height="1" fill="#0F0F2B" />
<rect x="7" y="5" width="1" height="1" fill="#0F0F2B" />
<rect x="8" y="5" width="1" height="1" fill="#0F0F2B" />
<rect x="9" y="5" width="1" height="1" fill="#0F0F2B" />
<rect x="10" y="5" width="1" height="1" fill="#151540" />
<rect x="21" y="5" width="1" height="1" fill="#2E2E8C" />
<rect x="22" y="5" width="1" height="1" fill="#0F0F2B" />
<rect x="23" y="5" width="1" height="1" fill="#0F0F2B" />
<rect x="24" y="5" width="1" height="1" fill="#0F0F2B" />
<rect x="25" y="5" width="1" height="1" fill="#0F0F2B" />
<rect x="26" y="5" width="1" height="1" fill="#323299" />
<rect x="37" y="5" width="1" height="1" fill="#151540" />
<rect x="38" y="5" width="1" height="1" fill="#0F0F2B" />
<rect x="39" y="5" width="1" height="1" fill="#0F0F2B" />
<rect x="40" y="5" width="1" height="1" fill="#0F0F2B" />
<rect x="41" y="5" width="1" height="1" fill="#0F0F2B" />
<rect x="42" y="5" width="1" height="1" fill="#151540" />
<rect x="53" y="5" width="1" height="1" fill="#222266" />
<rect x="54" y="5" width="1" height="1" fill="#0F0F2B" />
<rect x="55" y="5" width="1" height="1" fill="#0C0C24" />
<rect x="56" y="5" width="1" height="1" fill="#0C0C24" />
<rect x="57" y="5" width="1" height="1" fill="#0F0F2B" />
<rect x="58" y="5" width="1" height="1" fill="#25256E" />
<rect x="69" y="5" width="1" height="1" fill="#151540" />
<rect x="70" y="5" width="1" height="1" fill="#0F0F2B" />
<rect x="71" y="5" width="1" height="1" fill="#0F0F2B" />
<rect x="72" y="5" width="1" height="1" fill="#0F0F2B" />
<rect x="73" y="5" width="1" height="1" fill="#0F0F2B" />
<rect x="74" y="5" width="1" height="1" fill="#151540" />
<rect x="85" y="5" width="1" height="1" fill="#151540" />
<rect x="86" y="5" width="1" height="1" fill="#0F0F2B" />
<rect x="87" y="5" width="1" height="1" fill="#0F0F2B" />
<rect x="88" y="5" width="1" height="1" fill="#0F0F2B" />
<rect x="89" y="5" width="1" height="1" fill="#0F0F2B" />
<rect x="90" y="5" width="1" height="1" fill="#151540" />
<rect x="5" y="6" width="1" height="1" fill="#222266" />
<rect x="6" y="6" width="1" height="1" fill="#0F0F2B" />
<rect x="7" y="6" width="1" height="1" fill="#0C0C24" />
<rect x="8" y="6" width="1" height="1" fill="#0C0C24" />
<rect x="9" y="6" width="1" height="1" fill="#0F0F2B" />
<rect x="10" y="6" width="1" height="1" fill="#25256E" />
<rect x="21" y="6" width="1" height="1" fill="#151540" />
<rect x="22" y="6" width="1" height="1" fill="#0F0F2B" />
<rect x="23" y="6" width="1" height="1" fill="#0F0F2B" />
<rect x="24" y="6" width="1" height="1" fill="#0F0F2B" />
<rect x="25" y="6" width="1" height="1" fill="#0F0F2B" />
<rect x="26" y="6" width="1" height="1" fill="#151540" />
<rect x="37" y="6" width="1" height="1" fill="#222266" />
<rect x="38" y="6" width="1" height="1" fill="#0F0F2B" />
<rect x="39" y="6" width="1" height="1" fill="#0C0C24" />
<rect x="40" y="6" width="1" height="1" fill="#0C0C24" />
<rect x="41" y="6" width="1" height="1" fill="#0F0F2B" />
<rect x="42" y="6" width="1" height="1" fill="#25256E" />
<rect x="53" y="6" width="1" height="1" fill="#222266" />
<rect x="54" y="6" width="1" height="1" fill="#0C0C24" />
<rect x="55" y="6" width="1" height="1" fill="#0C0C24" />
<rect x="56" y="6" width="1" height="1" fill="#0C0C24" />
<rect x="57" y="6" width="1" height="1" fill="#0C0C24" />
<rect x="58" y="6" width="1" height="1" fill="#25256E" />
<rect x="69" y="6" width="1" height="1" fill="#222266" />
<rect x="70" y="6" width="1" height="1" fill="#0F0F2B" />
<rect x="71" y="6" width="1" height="1" fill="#0C0C24" />
<rect x="72" y="6" width="1" height="1" fill="#0C0C24" />
<rect x="73" y="6" width="1" height="1" fill="#0F0F2B" />
<rect x="74" y="6" width="1" height="1" fill="#25256E" />
<rect x="85" y="6" width="1" height="1" fill="#222266" />
<rect x="86" y="6" width="1" height="1" fill="#0F0F2B" />
<rect x="87" y="6" width="1" height="1" fill="#0C0C24" />
<rect x="88" y="6" width="1" height="1" fill="#0C0C24" />
<rect x="89" y="6" width="1" height="1" fill="#0F0F2B" />
<rect x="90" y="6" width="1" height="1" fill="#25256E" />
<rect x="5" y="7" width="1" height="1" fill="#222266" />
<rect x="6" y="7" width="1" height="1" fill="#0C0C24" />
<rect x="7" y="7" width="1" height="1" fill="#0C0C24" />
<rect x="8" y="7" width="1" height="1" fill="#0C0C24" />
<rect x="9" y="7" width="1" height="1" fill="#0C0C24" />
<rect x="10" y="7" width="1" height="1" fill="#25256E" />
<rect x="21" y="7" width="1" height="1" fill="#222266" />
<rect x="22" y="7" width="1" height="1" fill="#0F0F2B" />
<rect x="23" y="7" width="1" height="1" fill="#0C0C24" />
<rect x="24" y="7" width="1" height="1" fill="#0C0C24" />
<rect x="25" y="7" width="1" height="1" fill="#0F0F2B" />
<rect x="26" y="7" width="1" height="1" fill="#25256E" />
<rect x="37" y="7" width="1" height="1" fill="#222266" />
<rect x="38" y="7" width="1" height="1" fill="#0C0C24" />
<rect x="39" y="7" width="1" height="1" fill="#0C0C24" />
<rect x="40" y="7" width="1" height="1" fill="#0C0C24" />
<rect x="41" y="7" width="1" height="1" fill="#0C0C24" />
<rect x="42" y="7" width="1" height="1" fill="#25256E" />
<rect x="53" y="7" width="1" height="1" fill="#222266" />
<rect x="54" y="7" width="1" height="1" fill="#222266" />
<rect x="55" y="7" width="1" height="1" fill="#222266" />
<rect x="56" y="7" width="1" height="1" fill="#222266" />
<rect x="57" y="7" width="1" height="1" fill="#25256E" />
<rect x="58" y="7" width="1" height="1" fill="#25256E" />
<rect x="69" y="7" width="1" height="1" fill="#222266" />
<rect x="70" y="7" width="1" height="1" fill="#0C0C24" />
<rect x="71" y="7" width="1" height="1" fill="#0C0C24" />
<rect x="72" y="7" width="1" height="1" fill="#0C0C24" />
<rect x="73" y="7" width="1" height="1" fill="#0C0C24" />
<rect x="74" y="7" width="1" height="1" fill="#25256E" />
<rect x="85" y="7" width="1" height="1" fill="#222266" />
<rect x="86" y="7" width="1" height="1" fill="#0C0C24" />
<rect x="87" y="7" width="1" height="1" fill="#0C0C24" />
<rect x="88" y="7" width="1" height="1" fill="#0C0C24" />
<rect x="89" y="7" width="1" height="1" fill="#0C0C24" />
<rect x="90" y="7" width="1" height="1" fill="#25256E" />
<rect x="5" y="8" width="1" height="1" fill="#222266" />
<rect x="6" y="8" width="1" height="1" fill="#222266" />
<rect x="7" y="8" width="1" height="1" fill="#222266" />
<rect x="8" y="8" width="1" height="1" fill="#222266" />
<rect x="9" y="8" width="1" height="1" fill="#25256E" />
<rect x="10" y="8" width="1" height="1" fill="#25256E" />
<rect x="21" y="8" width="1" height="1" fill="#222266" />
<rect x="22" y="8" width="1" height="1" fill="#0C0C24" />
<rect x="23" y="8" width="1" height="1" fill="#0C0C24" />
<rect x="24" y="8" width="1" height="1" fill="#0C0C24" />
<rect x="25" y="8" width="1" height="1" fill="#0C0C24" />
<rect x="26" y="8" width="1" height="1" fill="#25256E" />
<rect x="37" y="8" width="1" height="1" fill="#222266" />
<rect x="38" y="8" width="1" height="1" fill="#222266" />
<rect x="39" y="8" width="1" height="1" fill="#222266" />
<rect x="40" y="8" width="1" height="1" fill="#222266" />
<rect x="41" y="8" width="1" height="1" fill="#25256E" />
<rect x="42" y="8" width="1" height="1" fill="#25256E" />
<rect x="53" y="8" width="1" height="1" fill="#222266" />
<rect x="54" y="8" width="1" height="1" fill="#FFFFFF" />
<rect x="55" y="8" width="1" height="1" fill="#FFFFFF" />
<rect x="56" y="8" width="1" height="1" fill="#3F75BA" />
<rect x="57" y="8" width="1" height="1" fill="#FFFFFF" />
<rect x="58" y="8" width="1" height="1" fill="#25256E" />
<rect x="69" y="8" width="1" height="1" fill="#222266" />
<rect x="70" y="8" width="1" height="1" fill="#222266" />
<rect x="71" y="8" width="1" height="1" fill="#222266" />
<rect x="72" y="8" width="1" height="1" fill="#222266" />
<rect x="73" y="8" width="1" height="1" fill="#25256E" />
<rect x="74" y="8" width="1" height="1" fill="#25256E" />
<rect x="85" y="8" width="1" height="1" fill="#222266" />
<rect x="86" y="8" width="1" height="1" fill="#222266" />
<rect x="87" y="8" width="1" height="1" fill="#222266" />
<rect x="88" y="8" width="1" height="1" fill="#222266" />
<rect x="89" y="8" width="1" height="1" fill="#25256E" />
<rect x="90" y="8" width="1" height="1" fill="#25256E" />
<rect x="5" y="9" width="1" height="1" fill="#222266" />
<rect x="6" y="9" width="1" height="1" fill="#FFFFFF" />
<rect x="7" y="9" width="1" height="1" fill="#FFFFFF" />
<rect x="8" y="9" width="1" height="1" fill="#3F75BA" />
<rect x="9" y="9" width="1" height="1" fill="#FFFFFF" />
<rect x="10" y="9" width="1" height="1" fill="#25256E" />
<rect x="21" y="9" width="1" height="1" fill="#222266" />
<rect x="22" y="9" width="1" height="1" fill="#222266" />
<rect x="23" y="9" width="1" height="1" fill="#222266" />
<rect x="24" y="9" width="1" height="1" fill="#222266" />
<rect x="25" y="9" width="1" height="1" fill="#25256E" />
<rect x="26" y="9" width="1" height="1" fill="#25256E" />
<rect x="37" y="9" width="1" height="1" fill="#222266" />
<rect x="38" y="9" width="1" height="1" fill="#FFFFFF" />
<rect x="39" y="9" width="1" height="1" fill="#FFFFFF" />
<rect x="40" y="9" width="1" height="1" fill="#3F75BA" />
<rect x="41" y="9" width="1" height="1" fill="#FFFFFF" />
<rect x="42" y="9" width="1" height="1" fill="#25256E" />
<rect x="53" y="9" width="1" height="1" fill="#222266" />
<rect x="54" y="9" width="1" height="1" fill="#FFFFFF" />
<rect x="55" y="9" width="1" height="1" fill="#FFFFFF" />
<rect x="56" y="9" width="1" height="1" fill="#3F75BA" />
<rect x="57" y="9" width="1" height="1" fill="#FFFFFF" />
<rect x="58" y="9" width="1" height="1" fill="#25256E" />
<rect x="69" y="9" width="1" height="1" fill="#222266" />
<rect x="70" y="9" width="1" height="1" fill="#FFFFFF" />
<rect x="71" y="9" width="1" height="1" fill="#FFFFFF" />
<rect x="72" y="9" width="1" height="1" fill="#3F75BA" />
<rect x="73" y="9" width="1" height="1" fill="#FFFFFF" />
<rect x="74" y="9" width="1" height="1" fill="#25256E" />
<rect x="85" y="9" width="1" height="1" fill="#222266" />
<rect x="86" y="9" width="1" height="1" fill="#FFFFFF" />
<rect x="87" y="9" width="1" height="1" fill="#FFFFFF" />
<rect x="88" y="9" width="1" height="1" fill="#3F75BA" />
<rect x="89" y="9" width="1" height="1" fill="#FFFFFF" />
<rect x="90" y="9" width="1" height="1" fill="#25256E" />
<rect x="5" y="10" width="1" height="1" fill="#222266" />
<rect x="6" y="10" width="1" height="1" fill="#222266" />
<rect x="7" y="10" width="1" height="1" fill="#222266" />
<rect x="8" y="10" width="1" height="1" fill="#222266" />
<rect x="9" y="10" width="1" height="1" fill="#25256E" />
<rect x="10" y="10" width="1" height="1" fill="#25256E" />
<rect x="21" y="10" width="1" height="1" fill="#222266" />
<rect x="22" y="10" width="1" height="1" fill="#FFFFFF" />
<rect x="23" y="10" width="1" height="1" fill="#FFFFFF" />
<rect x="24" y="10" width="1" height="1" fill="#3F75BA" />
<rect x="25" y="10" width="1" height="1" fill="#FFFFFF" />
<rect x="26" y="10" width="1" height="1" fill="#25256E" />
<rect x="37" y="10" width="1" height="1" fill="#222266" />
<rect x="38" y="10" width="1" height="1" fill="#222266" />
<rect x="39" y="10" width="1" height="1" fill="#222266" />
<rect x="40" y="10" width="1" height="1" fill="#222266" />
<rect x="41" y="10" width="1" height="1" fill="#25256E" />
<rect x="42" y="10" width="1" height="1" fill="#25256E" />
<rect x="53" y="10" width="1" height="1" fill="#222266" />
<rect x="54" y="10" width="1" height="1" fill="#222266" />
<rect x="55" y="10" width="1" height="1" fill="#222266" />
<rect x="56" y="10" width="1" height="1" fill="#222266" />
<rect x="57" y="10" width="1" height="1" fill="#25256E" />
<rect x="58" y="10" width="1" height="1" fill="#25256E" />
<rect x="69" y="10" width="1" height="1" fill="#222266" />
<rect x="70" y="10" width="1" height="1" fill="#222266" />
<rect x="71" y="10" width="1" height="1" fill="#222266" />
<rect x="72" y="10" width="1" height="1" fill="#222266" />
<rect x="73" y="10" width="1" height="1" fill="#25256E" />
<rect x="74" y="10" width="1" height="1" fill="#25256E" />
<rect x="85" y="10" width="1" height="1" fill="#222266" />
<rect x="86" y="10" width="1" height="1" fill="#222266" />
<rect x="87" y="10" width="1" height="1" fill="#222266" />
<rect x="88" y="10" width="1" height="1" fill="#222266" />
<rect x="89" y="10" width="1" height="1" fill="#25256E" />
<rect x="90" y="10" width="1" height="1" fill="#25256E" />
<rect x="5" y="11" width="1" height="1" fill="#151542" />
<rect x="6" y="11" width="1" height="1" fill="#151542" />
<rect x="7" y="11" width="1" height="1" fill="#151542" />
<rect x="8" y="11" width="1" height="1" fill="#151542" />
<rect x="9" y="11" width="1" height="1" fill="#151542" />
<rect x="10" y="11" width="1" height="1" fill="#171747" />
<rect x="21" y="11" width="1" height="1" fill="#151542" />
<rect x="22" y="11" width="1" height="1" fill="#151542" />
<rect x="23" y="11" width="1" height="1" fill="#151542" />
<rect x="24" y="11" width="1" height="1" fill="#151542" />
<rect x="25" y="11" width="1" height="1" fill="#151542" />
<rect x="26" y="11" width="1" height="1" fill="#171747" />
<rect x="37" y="11" width="1" height="1" fill="#151542" />
<rect x="38" y="11" width="1" height="1" fill="#151542" />
<rect x="39" y="11" width="1" height="1" fill="#151542" />
<rect x="40" y="11" width="1" height="1" fill="#151542" />
<rect x="41" y="11" width="1" height="1" fill="#151542" />
<rect x="42" y="11" width="1" height="1" fill="#171747" />
<rect x="53" y="11" width="1" height="1" fill="#151542" />
<rect x="54" y="11" width="1" height="1" fill="#151542" />
<rect x="55" y="11" width="1" height="1" fill="#151542" />
<rect x="56" y="11" width="1" height="1" fill="#151542" />
<rect x="57" y="11" width="1" height="1" fill="#151542" />
<rect x="58" y="11" width="1" height="1" fill="#171747" />
<rect x="69" y="11" width="1" height="1" fill="#151542" />
<rect x="70" y="11" width="1" height="1" fill="#151542" />
<rect x="71" y="11" width="1" height="1" fill="#151542" />
<rect x="72" y="11" width="1" height="1" fill="#151542" />
<rect x="73" y="11" width="1" height="1" fill="#151542" />
<rect x="74" y="11" width="1" height="1" fill="#171747" />
<rect x="85" y="11" width="1" height="1" fill="#151542" />
<rect x="86" y="11" width="1" height="1" fill="#151542" />
<rect x="87" y="11" width="1" height="1" fill="#151542" />
<rect x="88" y="11" width="1" height="1" fill="#151542" />
<rect x="89" y="11" width="1" height="1" fill="#151542" />
<rect x="90" y="11" width="1" height="1" fill="#171747" />
<rect x="5" y="12" width="1" height="1" fill="#151542" />
<rect x="10" y="12" width="1" height="1" fill="#171747" />
<rect x="21" y="12" width="1" height="1" fill="#151542" />
<rect x="26" y="12" width="1" height="1" fill="#171747" />
<rect x="37" y="12" width="1" height="1" fill="#151542" />
<rect x="42" y="12" width="1" height="1" fill="#171747" />
<rect x="53" y="12" width="1" height="1" fill="#151542" />
<rect x="58" y="12" width="1" height="1" fill="#171747" />
<rect x="69" y="12" width="1" height="1" fill="#151542" />
<rect x="74" y="12" width="1" height="1" fill="#171747" />
<rect x="85" y="12" width="1" height="1" fill="#151542" />
<rect x="90" y="12" width="1" height="1" fill="#171747" />
</svg>